<!DOCTYPE svg PUBLIC "-//W3C//DTD SVG 20010904//EN" "http://www.w3.org/TR/2001/REC-SVG-20010904/DTD/svg10.dtd">
<svg version="1.0" xmlns="http://www.w3.org/2000/svg" width="685px" height="678px" viewBox="0 0 6850 6780" preserveAspectRatio="xMidYMid meet">
<g id="layer101" fill="#153536" stroke="none">
<path d="M0 3390 l0 -3390 3425 0 3425 0 0 3390 0 3390 -3425 0 -3425 0 0 -3390z"/>
</g>
<g id="layer102" fill="#243d3d" stroke="none">
<path d="M0 3390 l0 -3390 3425 0 3425 0 0 3390 0 3390 -3425 0 -3425 0 0 -3390z m3780 2750 c622 -53 1165 -295 1594 -710 271 -263 464 -545 600 -880 129 -318 186 -613 186 -960 0 -507 -143 -989 -416 -1396 -115 -173 -271 -363 -350 -426 -21 -17 -23 -17 -45 1 l-24 19 77 38 c77 38 77 38 157 158 196 297 326 636 383 996 17 108 22 181 22 367 1 127 -2 235 -7 239 -6 6 -209 -8 -302 -21 -16 -3 -138 -16 -270 -30 -132 -14 -298 -32 -370 -40 -71 -9 -218 -25 -325 -36 -107 -11 -278 -28 -380 -39 -102 -11 -200 -20 -218 -20 -30 0 -33 2 -30 28 2 21 9 27 28 28 41 3 463 45 490 50 14 2 142 15 285 29 143 14 271 27 285 30 14 3 138 16 275 30 l250 25 128 62 129 63 -5 40 c-10 68 -44 205 -77 305 -98 300 -242 565 -443 815 -60 75 -335 345 -351 345 -28 0 -209 -90 -236 -117 -15 -16 -60 -73 -101 -128 -41 -55 -76 -102 -79 -105 -3 -3 -159 -211 -348 -462 -188 -252 -346 -458 -351 -458 -44 0 -15 44 366 550 624 830 612 814 601 827 -13 16 -181 119 -278 171 -504 269 -1145 351 -1717 217 -195 -45 -369 -107 -533 -189 -335 -169 -542 -294 -700 -425 -63 -52 -278 -265 -335 -331 l-38 -45 33 60 c265 480 706 887 1200 1105 399 176 838 254 1240 220z m-654 -5058 c-3 -2 -21 -1 -41 2 l-35 7 2 1217 3 1217 35 70 35 70 3 -1289 c1 -709 0 -1291 -2 -1294z"/>
</g>
<g id="layer103" fill="#214b3d" stroke="none">
<path d="M0 3390 l0 -3390 3425 0 3425 0 0 3390 0 3390 -3425 0 -3425 0 0 -3390z m3790 2751 c831 -65 1575 -522 2007 -1234 314 -518 432 -1135 332 -1735 -83 -502 -328 -988 -680 -1354 l-74 -76 -24 23 -24 24 76 37 c75 38 76 39 156 158 196 297 326 636 383 996 17 108 22 181 22 367 1 127 -2 235 -7 239 -6 6 -209 -8 -302 -21 -16 -3 -138 -16 -270 -30 -132 -14 -298 -32 -370 -40 -71 -9 -218 -25 -325 -36 -107 -11 -278 -28 -380 -39 -102 -11 -200 -20 -218 -20 -30 0 -33 2 -30 28 2 21 9 27 28 29 53 3 456 43 480 48 14 3 97 12 185 20 88 9 241 24 340 35 232 26 241 27 427 46 l157 15 123 64 123 63 -3 39 c-2 21 -14 84 -28 141 -78 324 -243 659 -462 942 -68 88 -307 333 -354 364 -25 17 -28 16 -75 -5 -113 -51 -168 -81 -191 -106 -13 -14 -193 -251 -400 -527 -474 -631 -462 -616 -470 -616 -19 1 -34 19 -26 33 5 8 231 309 502 669 270 359 492 659 492 665 0 18 -182 128 -345 208 -385 189 -828 277 -1251 246 -340 -24 -671 -113 -947 -255 -187 -97 -381 -203 -442 -241 -182 -115 -422 -324 -570 -495 l-47 -55 37 70 c89 167 249 382 397 536 530 550 1288 839 2048 780z m-660 -3771 l0 -1290 -22 0 c-13 0 -33 3 -46 6 l-23 7 3 1201 c4 1095 5 1205 21 1251 16 49 52 115 62 115 3 0 5 -580 5 -1290z"/>
</g>
<g id="layer104" fill="#205355" stroke="none">
<path d="M0 3390 l0 -3390 3425 0 3425 0 0 3390 0 3390 -3425 0 -3425 0 0 -3390z m3955 2736 c570 -85 1061 -331 1460 -731 213 -213 362 -420 489 -679 271 -555 335 -1178 180 -1774 -105 -404 -339 -821 -628 -1120 -39 -40 -72 -77 -74 -82 -2 -6 -15 4 -29 21 -14 16 -24 31 -22 33 2 2 36 20 75 39 70 35 72 38 151 159 197 301 323 624 378 968 31 200 39 596 11 619 -8 7 -105 0 -286 -19 -549 -57 -766 -80 -800 -85 -19 -2 -125 -13 -235 -25 -110 -11 -216 -23 -235 -25 -34 -5 -317 -35 -327 -35 -2 0 -3 15 -1 33 3 31 4 32 63 38 33 4 85 10 115 13 30 3 78 8 105 11 43 4 135 14 290 30 22 2 67 7 100 10 33 4 74 8 90 11 17 2 163 18 325 34 456 48 540 57 545 62 4 4 -8 83 -19 123 -2 6 -6 24 -10 40 -98 387 -269 721 -524 1025 -105 125 -314 323 -326 309 -2 -2 -195 -260 -431 -574 -235 -313 -431 -574 -436 -579 -11 -13 -41 14 -35 31 3 7 228 309 501 671 272 362 495 662 495 668 0 15 -150 110 -285 180 -634 330 -1385 371 -2050 113 -156 -61 -530 -256 -680 -354 -193 -128 -386 -297 -520 -456 -41 -49 -75 -86 -75 -82 0 4 23 48 51 97 354 622 953 1072 1644 1236 103 24 250 49 385 64 77 9 480 -4 575 -18z m-827 -5052 c-2 -1 -21 1 -43 5 l-40 6 0 1200 c0 1109 1 1204 17 1255 10 30 28 71 40 90 l23 35 3 -1294 c1 -712 1 -1295 0 -1297z m602 1826 c-8 -5 -19 -10 -25 -10 -5 0 -3 5 5 10 8 5 20 10 25 10 6 0 3 -5 -5 -10z m-33 -397 c-4 -3 -7 0 -7 7 0 7 3 10 7 7 3 -4 3 -10 0 -14z m0 -450 c-4 -3 -7 0 -7 7 0 7 3 10 7 7 3 -4 3 -10 0 -14z m0 -140 c-4 -3 -7 0 -7 7 0 7 3 10 7 7 3 -4 3 -10 0 -14z m1663 -197 c0 -2 -8 -10 -17 -17 -16 -13 -17 -12 -4 4 13 16 21 21 21 13z m-60 -69 c0 -2 -15 -16 -32 -33 l-33 -29 29 33 c28 30 36 37 36 29z m-80 -81 c0 -3 -5 -8 -12 -12 -7 -4 -8 -3 -4 4 7 12 16 16 16 8z m-60 -49 c0 -2 -12 -14 -27 -28 l-28 -24 24 28 c23 25 31 32 31 24z m-80 -71 c0 -2 -8 -10 -17 -17 -16 -13 -17 -12 -4 4 13 16 21 21 21 13z m-50 -40 c0 -2 -8 -10 -17 -17 -16 -13 -17 -12 -4 4 13 16 21 21 21 13z m-120 -90 c0 -3 -5 -8 -12 -12 -7 -4 -8 -3 -4 4 7 12 16 16 16 8z m-40 -31 c-7 -8 -17 -15 -23 -15 -6 0 -2 7 9 15 25 19 30 19 14 0z m-120 -69 c0 -3 -5 -8 -12 -12 -7 -4 -8 -3 -4 4 7 12 16 16 16 8z m-230 -126 c-8 -5 -19 -10 -25 -10 -5 0 -3 5 5 10 8 5 20 10 25 10 6 0 3 -5 -5 -10z m-175 -90 c-3 -5 -12 -10 -18 -10 -7 0 -6 4 3 10 19 12 23 12 15 0z m-85 -40 c-8 -5 -19 -10 -25 -10 -5 0 -3 5 5 10 8 5 20 10 25 10 6 0 3 -5 -5 -10z m-193 -77 c-4 -3 -10 -3 -14 0 -3 4 0 7 7 7 7 0 10 -3 7 -7z m-30 -10 c-4 -3 -10 -3 -14 0 -3 4 0 7 7 7 7 0 10 -3 7 -7z m-70 -20 c-4 -3 -10 -3 -14 0 -3 4 0 7 7 7 7 0 10 -3 7 -7z m-40 -10 c-4 -3 -10 -3 -14 0 -3 4 0 7 7 7 7 0 10 -3 7 -7z m-110 -30 c-4 -3 -10 -3 -14 0 -3 4 0 7 7 7 7 0 10 -3 7 -7z m-50 -10 c-4 -3 -10 -3 -14 0 -3 4 0 7 7 7 7 0 10 -3 7 -7z m-50 -10 c-4 -3 -10 -3 -14 0 -3 4 0 7 7 7 7 0 10 -3 7 -7z"/>
</g>
<g id="layer105" fill="#1b7e37" stroke="none">
<path d="M5650 3560 c-140 -15 -367 -39 -505 -54 -137 -14 -268 -29 -290 -31 -22 -3 -105 -12 -185 -21 -80 -8 -224 -23 -320 -34 -96 -11 -230 -24 -297 -30 -120 -10 -125 -11 -240 -67 -65 -32 -118 -64 -117 -70 1 -7 2 -51 3 -97 l1 -84 59 -49 c33 -26 62 -53 65 -60 3 -7 -21 -25 -60 -45 l-64 -33 0 -1042 c0 -899 2 -1043 14 -1043 48 0 189 37 366 97 107 36 492 218 635 301 229 132 485 337 616 493 l42 50 -23 24 c-13 14 -22 27 -19 29 2 2 36 20 75 39 70 35 72 38 151 159 197 301 323 624 378 968 30 194 39 585 13 618 -12 14 15 16 -298 -18z"/>
</g>
<g id="layer106" fill="#276b54" stroke="none">
<path d="M3280 5799 c-290 -25 -589 -103 -835 -219 -163 -76 -443 -227 -545 -294 -596 -391 -987 -999 -1097 -1706 -25 -162 -25 -548 0 -710 67 -428 220 -792 478 -1137 100 -134 338 -370 480 -476 117 -87 263 -178 381 -238 161 -81 431 -175 602 -209 l58 -12 119 58 119 58 0 1267 c0 901 3 1283 11 1321 14 65 49 136 91 184 l32 36 100 -4 c85 -3 111 -9 164 -33 l64 -28 117 58 118 58 74 100 c41 56 305 409 588 786 l514 685 -31 26 c-17 14 -79 54 -137 89 -436 259 -970 383 -1465 340z"/>
<path d="M4700 4968 c-68 -90 -259 -343 -424 -563 -164 -220 -318 -422 -341 -450 -46 -55 -274 -357 -295 -392 -12 -19 -11 -29 16 -82 l29 -61 85 6 c47 4 96 8 110 9 14 2 58 6 99 9 40 3 77 8 80 11 4 2 79 11 167 20 87 9 173 17 189 20 73 9 140 16 285 30 181 18 189 19 425 45 99 11 250 27 335 36 85 9 166 18 180 19 14 2 31 4 39 4 18 1 10 62 -24 193 -88 340 -257 678 -470 942 -72 90 -279 301 -346 354 -14 10 -32 -9 -139 -150z"/>
<path d="M5795 3575 c-66 -7 -140 -16 -165 -19 -25 -3 -76 -8 -115 -11 -38 -3 -122 -12 -185 -20 -63 -8 -189 -21 -280 -30 -91 -9 -179 -18 -197 -20 -60 -9 -249 -30 -343 -39 -30 -3 -73 -8 -95 -10 -22 -3 -114 -12 -205 -21 -91 -8 -192 -18 -225 -21 -45 -4 -89 -20 -175 -62 l-114 -57 2 -95 c3 -105 -4 -91 99 -180 l41 -36 -69 -34 -69 -34 0 -1043 c0 -987 1 -1043 18 -1043 15 1 126 24 162 35 8 2 40 11 71 20 219 59 696 288 934 448 141 94 359 284 446 388 l42 50 -25 25 c-24 25 -26 25 -63 10 l-37 -16 16 23 c201 280 333 573 406 897 47 207 55 287 55 552 l0 247 75 36 c103 49 148 74 130 73 -8 0 -69 -6 -135 -13z"/>
<path d="M5963 3345 c0 -22 2 -30 4 -17 2 12 2 30 0 40 -3 9 -5 -1 -4 -23z"/>
<path d="M5870 2690 c0 -7 3 -10 7 -7 3 4 3 10 0 14 -4 3 -7 0 -7 -7z"/>
</g>
<g id="layer107" fill="#2c9048" stroke="none">
<path d="M3195 5789 c-265 -32 -553 -116 -790 -230 -162 -78 -410 -215 -514 -282 -216 -142 -459 -370 -612 -572 -511 -681 -638 -1572 -334 -2360 297 -772 965 -1345 1774 -1525 l84 -19 118 60 119 59 2 1298 c3 1026 6 1305 16 1335 7 20 32 65 56 99 37 56 47 64 87 72 58 11 177 -7 247 -39 l53 -24 115 57 115 57 581 773 c319 426 582 782 585 791 3 14 -16 31 -79 71 -293 187 -602 304 -968 366 -114 19 -534 28 -655 13z"/>
<path d="M5820 3574 c-8 -2 -105 -13 -215 -24 -193 -19 -524 -55 -805 -86 -74 -8 -243 -26 -375 -39 -521 -53 -481 -46 -610 -109 l-115 -55 0 -90 0 -89 70 -63 71 -63 -68 -35 -68 -36 -3 -1044 -2 -1044 40 7 c90 14 307 80 434 130 153 62 537 259 663 342 173 112 358 267 472 394 l64 72 -25 25 c-24 24 -26 24 -63 9 l-37 -16 16 23 c201 280 333 573 406 897 47 207 55 287 55 552 l0 247 75 36 c41 20 86 42 100 50 24 14 24 14 -20 13 -25 0 -52 -2 -60 -4z"/>
</g>
<g id="layer108" fill="#2eb453" stroke="none">
<path d="M3195 5789 c-265 -32 -553 -116 -790 -230 -436 -210 -688 -381 -930 -630 -730 -752 -901 -1870 -430 -2810 329 -656 951 -1139 1674 -1299 l84 -19 118 60 119 59 2 1298 c3 1026 6 1305 16 1335 7 20 32 65 56 99 38 56 47 64 87 71 60 13 174 -5 244 -37 l56 -25 115 57 115 57 581 773 c319 425 582 781 585 791 3 14 -15 31 -79 71 -293 187 -602 304 -968 366 -114 19 -534 28 -655 13z"/>
<path d="M5555 3454 c-71 -8 -404 -43 -740 -79 -335 -36 -695 -74 -800 -86 -282 -29 -310 -33 -307 -41 1 -5 2 -45 2 -90 l1 -83 69 -60 70 -60 -75 -38 -75 -37 0 -1041 0 -1040 38 7 c204 36 405 109 686 247 305 150 454 240 616 370 107 86 320 298 320 318 0 9 -10 23 -22 32 -21 13 -27 13 -61 -5 -24 -12 -36 -14 -30 -6 4 7 41 63 81 123 281 424 429 970 397 1468 -6 100 -9 117 -23 116 -10 -1 -75 -8 -147 -15z"/>
</g>
<g id="layer109" fill="#8ca220" stroke="none">
<path d="M3768 2914 l-68 -34 0 -1041 0 -1040 38 7 c204 36 405 109 686 247 305 150 454 240 616 370 107 86 320 298 320 318 0 9 -10 23 -22 31 -21 14 -27 13 -64 -5 l-41 -20 -199 173 c-109 96 -226 197 -259 226 -33 28 -103 89 -155 134 -52 46 -111 97 -130 114 -19 17 -116 101 -215 186 -98 85 -218 189 -265 230 -136 120 -160 140 -168 140 -4 -1 -37 -17 -74 -36z"/>
</g>
<g id="layer110" fill="#86a730" stroke="none">
<path d="M3195 5789 c-265 -32 -553 -116 -790 -230 -162 -78 -410 -215 -514 -282 -408 -268 -741 -672 -925 -1122 -267 -655 -243 -1373 68 -2010 316 -645 893 -1117 1593 -1301 74 -19 146 -36 161 -36 15 0 78 25 140 56 l112 56 0 1278 c0 1404 -3 1332 62 1439 46 76 60 86 127 91 70 5 148 -10 219 -43 l53 -24 115 57 115 57 581 773 c319 425 582 781 585 791 3 14 -15 31 -79 71 -293 187 -602 304 -968 366 -114 19 -534 28 -655 13z"/>
<path d="M3768 2914 l-68 -34 0 -1041 0 -1040 38 7 c84 15 266 65 363 101 100 36 579 266 579 278 0 3 -18 -4 -40 -15 -22 -11 -40 -19 -40 -17 0 2 31 25 69 50 160 106 479 402 467 434 -3 8 -2 12 3 9 5 -3 38 8 73 26 34 18 67 31 72 30 5 -2 17 5 27 14 11 10 22 14 25 11 10 -9 -138 -157 -149 -150 -6 3 -7 1 -4 -4 4 -6 -19 -33 -51 -59 -31 -27 -73 -64 -92 -83 -27 -26 -23 -24 20 10 88 69 300 281 300 300 0 9 -10 23 -22 31 -21 14 -27 13 -64 -5 l-41 -20 -199 173 c-109 96 -226 197 -259 226 -33 28 -103 89 -155 134 -52 46 -111 97 -130 114 -19 17 -116 101 -215 186 -98 85 -218 189 -265 230 -136 120 -160 140 -168 140 -4 -1 -37 -17 -74 -36z m37 -114 c3 -5 4 -10 1 -10 -3 0 -8 5 -11 10 -3 6 -4 10 -1 10 3 0 8 -4 11 -10z m46 -37 c13 -16 12 -17 -3 -4 -10 7 -18 15 -18 17 0 8 8 3 21 -13z m94 -83 c10 -11 16 -20 13 -20 -3 0 -13 9 -23 20 -10 11 -16 20 -13 20 3 0 13 -9 23 -20z m60 -50 c3 -5 4 -10 1 -10 -3 0 -8 5 -11 10 -3 6 -4 10 -1 10 3 0 8 -4 11 -10z m385 -335 c13 -14 21 -25 18 -25 -2 0 -15 11 -28 25 -13 14 -21 25 -18 25 2 0 15 -11 28 -25z m125 -105 c3 -5 4 -10 1 -10 -3 0 -8 5 -11 10 -3 6 -4 10 -1 10 3 0 8 -4 11 -10z m40 -40 c3 -5 4 -10 1 -10 -3 0 -8 5 -11 10 -3 6 -4 10 -1 10 3 0 8 -4 11 -10z m210 -180 c3 -5 4 -10 1 -10 -3 0 -8 5 -11 10 -3 6 -4 10 -1 10 3 0 8 -4 11 -10z m96 -87 c13 -16 12 -17 -3 -4 -17 13 -22 21 -14 21 2 0 10 -8 17 -17z m54 -43 c3 -5 4 -10 1 -10 -3 0 -8 5 -11 10 -3 6 -4 10 -1 10 3 0 8 -4 11 -10z m90 -80 c3 -5 4 -10 1 -10 -3 0 -8 5 -11 10 -3 6 -4 10 -1 10 3 0 8 -4 11 -10z"/>
<path d="M4912 1340 c-46 -32 -89 -61 -95 -63 -7 -2 -10 -7 -7 -10 5 -5 151 90 178 117 27 27 11 18 -76 -44z"/>
<path d="M4743 1229 c-29 -17 -53 -33 -53 -36 0 -5 89 44 105 58 16 16 1 9 -52 -22z"/>
</g>
<g id="layer111" fill="#c4e02d" stroke="none">
<path d="M3710 1840 l0 -1032 48 7 c66 10 261 67 379 111 142 53 379 176 513 265 193 129 515 427 483 447 -10 7 -309 266 -687 597 -125 109 -615 534 -718 623 -17 14 -18 -35 -18 -1018z"/>
</g>
<g id="layer112" fill="#cdcece" stroke="none">
<path d="M3183 5785 c-354 -47 -587 -126 -966 -325 -357 -187 -533 -314 -752 -542 -366 -381 -584 -837 -666 -1398 -8 -50 -13 -178 -12 -310 0 -196 4 -244 27 -375 116 -660 441 -1193 969 -1589 271 -202 589 -346 954 -430 l62 -14 121 59 120 58 2 1303 3 1303 31 65 c18 36 45 80 61 99 26 31 36 35 90 39 72 5 150 -10 221 -43 l53 -25 115 58 115 57 584 779 c322 429 585 784 585 790 0 6 -40 37 -89 68 -271 175 -584 295 -921 355 -121 21 -183 26 -375 29 -157 2 -263 -1 -332 -11z"/>
</g>
<g id="layer113" fill="#dae6e7" stroke="none">
<path d="M3047 5680 c-220 -20 -491 -82 -675 -155 -127 -50 -325 -154 -462 -243 -623 -403 -1026 -1055 -1110 -1797 -12 -113 -13 -401 0 -520 74 -708 463 -1356 1060 -1767 244 -168 546 -301 840 -368 l95 -21 118 55 117 56 0 1265 c0 898 3 1279 11 1317 14 66 57 152 99 196 l31 34 97 -4 c78 -3 110 -9 165 -32 l68 -28 111 54 111 53 356 474 c702 934 804 1072 798 1077 -2 3 -47 -16 -98 -42 l-94 -46 -105 67 c-278 177 -625 306 -962 355 -154 23 -429 33 -571 20z"/>
</g>
<g id="layer114" fill="#f5f5f5" stroke="none">
<path d="M3025 5673 c-258 -22 -607 -119 -826 -229 -274 -137 -464 -270 -663 -463 -382 -372 -615 -814 -714 -1351 -24 -133 -26 -167 -26 -405 0 -242 2 -271 28 -415 64 -350 187 -659 379 -945 275 -413 667 -730 1135 -919 183 -74 450 -145 464 -123 4 7 8 579 8 1272 0 1328 0 1307 45 1395 28 55 72 106 124 144 55 41 176 92 235 101 55 8 151 -8 228 -39 l63 -26 21 23 c26 27 1145 1517 1150 1532 11 28 -356 228 -547 299 -194 71 -416 124 -611 145 -89 10 -397 12 -493 4z"/>
</g>


</svg>