<!DOCTYPE svg PUBLIC "-//W3C//DTD SVG 20010904//EN" "http://www.w3.org/TR/2001/REC-SVG-20010904/DTD/svg10.dtd">
<svg version="1.0" xmlns="http://www.w3.org/2000/svg" width="678px" height="678px" viewBox="0 0 6780 6780" preserveAspectRatio="xMidYMid meet">
<g id="layer101" fill="#010404" stroke="none">
<path d="M0 3390 l0 -3390 3390 0 3390 0 0 3390 0 3390 -3390 0 -3390 0 0 -3390z"/>
</g>
<g id="layer102" fill="#0f3231" stroke="none">
<path d="M0 3390 l0 -3390 3390 0 3390 0 0 3390 0 3390 -3390 0 -3390 0 0 -3390z m1526 2305 c26 -14 62 -25 80 -25 26 0 40 -9 68 -41 64 -75 66 -92 66 -481 l0 -348 -25 0 -25 0 0 328 c0 183 -4 343 -10 362 -21 75 -64 126 -136 161 -66 33 -73 34 -184 34 -63 0 -131 -3 -150 -8 -46 -10 -27 7 30 27 28 9 82 15 142 16 85 0 103 -3 144 -25z m2719 14 c22 -6 52 -20 67 -31 26 -18 27 -20 12 -43 l-16 -25 -45 33 c-43 31 -49 32 -139 32 -99 0 -107 9 -27 31 61 16 97 17 148 3z m-2125 -220 c0 -239 8 -298 46 -328 29 -23 22 -51 -12 -51 -32 0 -60 30 -73 77 -6 22 -11 136 -11 266 l0 227 -95 0 c-78 0 -95 3 -95 15 0 13 20 15 120 15 l120 0 0 -221z m370 -14 c0 -253 6 -291 53 -327 16 -13 19 -20 11 -28 -19 -19 -66 -7 -88 23 -20 27 -21 43 -24 278 l-3 249 -47 0 c-85 0 -152 12 -152 26 0 11 26 14 125 14 l125 0 0 -235z m368 -57 c-3 -272 -4 -295 -23 -327 -11 -18 -31 -41 -44 -49 l-24 -16 19 34 c17 32 19 63 22 323 l3 287 -95 0 c-90 0 -115 7 -101 30 4 6 57 10 126 10 l120 0 -3 -292z m392 -8 l0 -300 45 0 45 0 0 -41 c0 -36 -2 -40 -22 -37 -15 2 -24 11 -26 26 -3 19 -9 22 -48 22 l-44 0 0 295 0 295 -95 0 c-88 0 -95 1 -95 20 0 19 7 20 120 20 l120 0 0 -300z m368 290 l52 0 0 -230 c0 -208 2 -234 21 -285 11 -31 18 -62 15 -70 -10 -26 -45 -12 -63 25 -15 30 -18 70 -21 283 l-3 247 -100 0 c-76 0 -99 3 -99 13 0 25 15 29 80 23 36 -3 89 -6 118 -6z m1007 -3 c54 -14 64 -30 41 -62 -14 -20 -15 -20 -34 1 -25 26 -132 48 -202 42 -28 -3 -50 -3 -50 -1 0 2 15 10 33 18 40 18 146 19 212 2z m414 -11 c31 -17 61 -52 61 -73 0 -21 -55 -15 -76 8 -41 45 -119 65 -199 50 -54 -10 -49 3 11 25 48 18 159 12 203 -10z m607 -9 c100 -51 142 -131 151 -283 9 -145 -21 -239 -96 -307 -52 -47 -60 -47 -22 1 40 50 61 111 68 204 14 177 -47 308 -167 361 -61 27 -216 35 -284 13 -60 -18 -47 -2 20 24 41 17 68 20 164 17 102 -3 121 -6 166 -30z m-231 -74 c-19 -51 -27 -143 -23 -283 5 -158 13 -198 49 -236 17 -19 18 -22 4 -34 -24 -20 -59 -4 -80 37 -27 55 -35 350 -11 443 18 69 30 90 53 90 10 0 13 -6 8 -17z m-835 -238 c0 -252 -5 -281 -52 -306 -19 -10 -20 -9 -12 7 5 11 11 129 14 264 3 135 9 251 13 258 5 6 15 12 23 12 12 0 14 -37 14 -235z m-366 165 c-8 -70 11 -132 51 -170 17 -16 25 -34 25 -57 l0 -34 -45 33 c-64 47 -89 103 -83 182 6 69 21 106 44 106 12 0 14 -10 8 -60z m766 -180 l0 -240 55 0 55 0 0 -40 c0 -36 -3 -40 -24 -40 -18 0 -25 6 -28 23 -3 19 -10 22 -55 25 l-53 3 0 248 c0 136 3 251 7 254 3 4 15 7 25 7 17 0 18 -14 18 -240z m-3646 195 c-11 -28 -14 -102 -14 -390 l0 -355 -32 0 -31 0 6 340 c7 354 12 396 54 428 28 20 33 14 17 -23z m2586 -334 c15 -83 7 -135 -26 -168 -31 -31 -36 -27 -22 20 9 28 8 54 -1 106 l-13 70 -56 3 c-45 2 -58 7 -60 21 -3 15 6 17 81 17 l85 0 12 -69z m208 5 c-15 -48 -2 -103 28 -122 13 -9 44 -17 69 -18 39 -1 42 -3 29 -16 -10 -10 -35 -15 -75 -15 -55 0 -63 3 -86 29 -23 27 -25 36 -19 89 l6 59 -31 -7 c-24 -6 -30 -4 -27 6 5 14 42 26 90 28 25 1 26 0 16 -33z m-1168 -121 c0 -8 -9 -15 -20 -15 -11 0 -20 7 -20 15 0 8 9 15 20 15 11 0 20 -7 20 -15z m1730 0 c0 -8 -7 -15 -15 -15 -8 0 -15 7 -15 15 0 8 7 15 15 15 8 0 15 -7 15 -15z m-2570 -64 c0 -6 -11 -11 -25 -11 -23 0 -25 4 -25 41 l0 41 25 -30 c14 -17 25 -35 25 -41z m330 48 c0 -12 -29 -38 -43 -39 -4 0 0 11 9 25 17 26 34 33 34 14z m1198 -29 l23 -30 -26 0 c-21 0 -25 5 -25 30 0 17 1 30 3 30 2 0 13 -13 25 -30z m-443 -80 c-19 -37 -19 -84 0 -104 20 -19 19 -23 -5 -36 -33 -18 -60 4 -60 47 0 42 43 123 66 123 13 0 13 -4 -1 -30z m1775 -60 c0 -49 -3 -90 -6 -90 -3 0 -14 5 -25 10 -16 9 -19 22 -19 90 0 79 0 80 25 80 25 0 25 -1 25 -90z m-1630 45 c19 -7 36 -19 38 -28 5 -25 -34 -104 -58 -117 -20 -11 -21 -10 -11 9 6 11 11 35 11 54 0 29 -5 37 -30 47 -22 9 -30 19 -30 37 0 26 -2 26 80 -2z"/>
</g>
<g id="layer103" fill="#184041" stroke="none">
<path d="M0 3390 l0 -3390 3390 0 3390 0 0 3390 0 3390 -3390 0 -3390 0 0 -3390z m1430 2475 c0 -13 -57 -15 -454 -15 -250 0 -457 4 -460 9 -3 4 -3 11 1 15 3 3 210 6 460 6 396 0 453 -2 453 -15z m4588 3 c-4 -10 -438 -14 -2116 -16 -1873 -2 -2112 0 -2112 13 0 13 240 15 2116 15 1688 0 2115 -3 2112 -12z m-4484 -172 c27 -14 62 -26 77 -26 20 0 38 -12 66 -44 65 -74 66 -82 70 -473 l4 -353 -30 0 c-21 0 -31 -5 -31 -15 0 -11 -11 -15 -39 -15 l-40 0 -3 348 c-3 324 -4 350 -23 387 -11 22 -35 50 -53 62 -40 26 -110 39 -149 26 -56 -19 -58 -34 -61 -430 l-3 -363 -29 0 c-20 0 -30 -5 -30 -15 0 -13 -19 -15 -127 -13 l-128 3 2 343 c2 397 5 416 81 489 92 90 188 125 322 119 56 -3 87 -11 124 -30z m2734 9 c20 -9 46 -25 58 -36 21 -19 21 -19 58 10 49 39 116 48 215 27 41 -9 78 -19 82 -23 3 -5 0 -23 -7 -41 -12 -28 -17 -31 -33 -22 -16 8 -21 6 -26 -10 -4 -11 -10 -18 -15 -15 -4 3 -10 -103 -12 -234 -4 -279 -2 -275 -109 -328 -122 -62 -322 -67 -436 -12 -53 26 -73 61 -73 129 0 42 3 50 19 50 10 0 21 8 24 19 3 14 19 21 63 29 33 5 60 9 62 7 2 -2 -2 -21 -8 -44 -21 -81 17 -131 100 -131 52 0 60 8 60 64 0 54 -56 94 -214 151 -120 43 -178 150 -146 266 15 53 86 120 154 146 45 17 141 16 184 -2z m1359 -15 c63 -28 116 -81 144 -144 34 -75 39 -257 11 -339 -30 -85 -71 -130 -156 -172 -160 -79 -352 -65 -450 31 -54 54 -80 127 -84 241 -7 177 37 272 164 357 90 59 268 72 371 26z m-3505 -217 c3 -214 5 -242 23 -278 11 -22 28 -41 38 -43 16 -3 17 14 17 257 0 254 1 261 20 261 13 0 20 7 20 20 0 19 7 20 125 20 l125 0 0 -217 c0 -222 9 -294 37 -325 41 -45 43 -31 43 242 0 253 1 260 20 260 13 0 20 7 20 20 0 19 7 20 125 20 l125 0 0 -287 c0 -348 -2 -353 -99 -402 -98 -50 -205 -39 -273 26 -25 24 -29 25 -45 11 -10 -9 -44 -28 -76 -43 -70 -33 -130 -31 -198 4 -27 15 -45 19 -47 12 -2 -6 -15 -11 -28 -11 -15 0 -24 -6 -24 -16 0 -13 -7 -15 -32 -11 -18 3 -72 9 -120 13 l-88 6 0 329 c0 322 0 329 20 329 13 0 20 7 20 20 0 19 7 20 124 20 l124 0 4 -237z m1128 -57 l0 -295 48 -3 47 -3 3 -42 c3 -42 2 -43 -27 -43 -20 0 -31 -5 -31 -14 0 -9 -12 -16 -32 -18 -43 -4 -73 -53 -64 -103 5 -23 13 -35 23 -35 13 0 15 8 11 44 -5 44 -5 44 19 35 22 -8 24 -7 21 13 -1 13 0 25 2 27 3 2 31 -5 64 -15 l58 -18 -5 -39 c-8 -57 -31 -84 -101 -117 -113 -54 -229 -35 -293 48 -22 29 -29 51 -33 102 l-5 65 -42 3 c-42 3 -43 4 -43 38 0 27 4 34 19 34 10 0 21 9 24 20 3 12 14 20 26 20 21 0 21 3 21 275 0 268 0 275 20 275 13 0 20 7 20 20 0 19 7 20 125 20 l125 0 0 -294z m420 71 c0 -174 3 -235 16 -276 17 -58 31 -65 16 -7 -10 34 -9 36 14 36 17 0 24 6 24 20 0 18 7 20 84 20 l84 0 11 -44 c18 -72 14 -149 -9 -179 -41 -52 -174 -89 -207 -56 -17 17 -83 20 -83 3 0 -11 -21 -12 -112 -8 -62 3 -119 8 -126 10 -10 3 -12 21 -8 71 2 38 5 186 5 331 1 255 2 262 21 262 13 0 20 7 20 20 0 19 7 20 125 20 l125 0 0 -223z m1341 213 c36 -10 81 -50 92 -82 5 -14 1 -18 -19 -18 -13 0 -27 -7 -30 -15 -4 -9 -19 -15 -35 -15 l-29 0 0 -230 0 -230 50 0 50 0 0 -40 c0 -36 -3 -40 -24 -40 -13 0 -26 -7 -30 -15 -3 -8 -17 -15 -31 -15 l-25 0 0 -95 c0 -92 -1 -95 -19 -85 -27 14 -31 13 -31 -10 0 -11 -2 -20 -4 -20 -2 0 -36 15 -75 34 -39 18 -91 40 -116 47 l-45 13 0 58 0 58 -40 0 c-39 0 -40 1 -40 35 0 28 4 35 20 35 13 0 20 7 20 20 0 13 7 20 20 20 19 0 20 7 20 220 0 166 3 229 14 253 17 39 73 92 118 112 38 17 137 19 189 5z m-3641 -1281 l45 -20 89 -222 c268 -668 370 -917 377 -917 4 0 117 72 251 161 241 159 243 160 291 156 32 -3 63 -14 90 -33 l42 -29 90 -270 c50 -149 130 -393 179 -542 49 -150 92 -273 95 -273 3 0 60 50 126 110 137 125 183 150 244 131 50 -15 87 -44 111 -89 11 -21 56 -91 99 -157 l80 -120 1 -107 c0 -59 -3 -109 -8 -111 -4 -3 -61 78 -127 180 -128 197 -164 238 -220 249 -71 13 -99 -1 -230 -117 -114 -100 -145 -119 -145 -87 0 7 -57 185 -126 397 -193 591 -202 619 -220 646 -9 13 -40 36 -70 51 -94 46 -109 40 -377 -139 -148 -99 -234 -151 -238 -143 -4 6 -51 119 -104 251 -166 409 -240 593 -325 805 -46 113 -94 220 -108 239 l-25 33 34 -7 c19 -4 54 -16 79 -26z m4366 -1728 c41 -19 74 -54 74 -79 0 -8 -13 -4 -37 13 -73 49 -193 25 -231 -46 -7 -13 -82 -244 -167 -514 -85 -269 -157 -496 -160 -504 -4 -9 -27 7 -74 52 -76 74 -101 87 -168 87 -61 0 -108 -30 -137 -89 -13 -25 -92 -209 -176 -408 l-153 -363 -78 127 c-48 79 -74 132 -69 138 5 6 27 21 48 33 l40 22 44 -75 c23 -41 46 -75 50 -75 3 0 27 51 53 113 113 269 121 287 142 329 7 14 13 31 13 36 0 6 16 46 36 89 20 43 45 100 55 126 51 129 92 169 173 169 56 0 75 -11 164 -90 40 -36 74 -63 75 -61 2 2 8 20 14 39 6 19 24 78 41 130 17 52 71 226 121 385 115 368 117 371 154 399 53 40 93 44 153 17z"/>
<path d="M4227 5583 c-4 -3 -7 -38 -7 -76 0 -75 19 -131 51 -148 18 -9 19 -5 19 78 0 70 -4 95 -20 121 -20 32 -30 38 -43 25z"/>
<path d="M5410 5573 c-18 -70 -24 -276 -11 -361 19 -122 56 -168 81 -99 18 48 25 301 11 382 -22 126 -59 162 -81 78z"/>
</g>
<g id="layer104" fill="#204c3c" stroke="none">
<path d="M0 3390 l0 -3390 3390 0 3390 0 0 3390 0 3390 -3390 0 -3390 0 0 -3390z m1430 2475 c0 -13 -58 -15 -460 -15 -402 0 -460 2 -460 15 0 13 58 15 460 15 402 0 460 -2 460 -15z m4600 0 c0 -13 -243 -15 -2124 -15 -1176 0 -2127 4 -2130 9 -3 4 -3 11 1 15 3 3 962 6 2130 6 1880 0 2123 -2 2123 -15z m-4517 -159 c23 -14 61 -28 85 -32 57 -9 85 -33 119 -102 l28 -57 0 -360 0 -360 -27 -3 c-16 -2 -28 -8 -28 -13 0 -5 -20 -9 -45 -9 l-44 0 -3 359 c-3 347 -4 361 -24 388 -39 53 -81 73 -151 73 l-64 0 -17 -37 c-15 -33 -17 -85 -20 -395 l-3 -358 -25 0 c-15 0 -24 -6 -24 -15 0 -13 -22 -15 -135 -15 l-135 0 0 332 c0 373 6 416 66 486 47 55 130 109 194 126 30 8 90 15 133 15 66 1 85 -3 120 -23z m553 4 l64 0 0 -235 c0 -190 3 -242 16 -274 8 -22 22 -42 30 -45 12 -5 14 35 14 259 l0 265 25 0 c16 0 25 6 25 15 0 13 20 15 124 15 l124 0 4 -237 c3 -214 5 -242 23 -277 41 -81 44 -66 47 216 l3 263 23 3 c12 2 22 10 22 18 0 12 21 14 128 12 l127 -3 -4 -290 c-3 -215 -7 -299 -17 -324 -13 -30 -12 -33 4 -26 9 4 27 10 40 12 12 3 22 12 22 20 0 8 9 17 20 20 19 5 20 16 22 282 l3 276 23 3 c12 2 22 10 22 18 0 12 21 14 128 12 l127 -3 -3 -279 -4 -279 39 6 c21 4 48 7 61 7 l22 0 0 255 0 255 25 0 c18 0 25 5 25 20 0 20 5 20 126 18 l126 -3 -1 -210 c0 -115 3 -226 8 -245 5 -19 9 -27 10 -17 1 11 9 17 27 17 19 0 25 4 20 15 -4 13 9 15 84 15 l89 0 10 -37 c6 -21 12 -58 13 -82 4 -61 28 -67 28 -7 0 40 3 46 25 52 14 3 25 12 25 19 0 10 86 35 121 35 3 0 4 -28 2 -62 -4 -53 -2 -67 15 -88 16 -20 29 -24 73 -25 49 0 54 2 63 27 22 63 -27 109 -179 167 -136 52 -185 109 -185 215 0 77 19 117 79 164 66 52 107 65 195 60 59 -3 81 -8 115 -31 39 -26 44 -27 60 -13 29 26 88 46 139 46 42 0 151 -22 172 -35 5 -3 3 -21 -3 -40 -9 -29 -14 -34 -34 -29 -17 5 -23 2 -23 -10 0 -9 -7 -16 -15 -16 -13 0 -15 -31 -15 -219 0 -131 -4 -231 -11 -248 -22 -58 -91 -106 -184 -128 l-50 -12 103 -52 c530 -273 921 -763 1067 -1340 48 -189 59 -283 59 -506 0 -199 -5 -255 -40 -440 l-5 -30 19 31 c24 37 77 64 127 64 68 0 146 -63 145 -117 -1 -16 -2 -16 -13 -2 -24 32 -81 59 -125 59 -49 0 -75 -11 -114 -48 -29 -27 -48 -80 -237 -682 -44 -140 -88 -280 -97 -310 -10 -30 -19 -57 -20 -59 -2 -2 -31 22 -66 54 -34 32 -76 66 -93 76 -41 26 -108 24 -156 -3 -47 -26 -40 -12 -234 -473 -81 -192 -151 -354 -155 -358 -4 -4 -42 51 -85 123 -43 72 -76 132 -74 134 2 2 25 15 51 30 l47 27 24 -38 c13 -21 32 -53 42 -70 11 -18 22 -33 26 -33 3 0 32 62 64 138 32 75 63 148 70 162 7 14 21 43 30 65 10 22 24 52 32 67 7 14 13 31 13 36 0 6 17 48 38 94 21 46 49 110 62 143 30 77 54 112 92 131 39 20 107 20 147 -1 17 -9 36 -13 41 -10 17 11 98 168 144 281 104 254 140 445 141 736 0 113 -3 209 -7 213 -6 6 -1369 -132 -1500 -152 -36 -5 -38 -4 -38 20 0 32 -17 28 320 62 390 39 815 83 912 95 71 8 107 20 188 58 77 36 100 51 100 67 0 35 -48 217 -85 325 -42 120 -130 300 -200 410 -96 151 -290 372 -400 456 l-33 25 -86 -43 -87 -43 -362 -482 c-314 -419 -364 -481 -376 -468 -12 12 39 85 388 550 221 295 404 542 407 549 11 28 -228 167 -411 241 -191 77 -430 129 -642 141 l-118 6 -15 -34 c-23 -50 -123 -98 -204 -98 -68 0 -128 23 -164 63 -23 25 -24 25 -85 11 -182 -43 -364 -119 -622 -259 -267 -146 -434 -276 -614 -480 l-54 -60 29 50 c203 362 496 648 857 835 64 34 105 61 97 64 -8 2 -32 10 -53 16 -21 7 -54 25 -72 41 -27 24 -34 27 -44 15 -7 -8 -34 -26 -61 -40 -64 -34 -145 -35 -209 -4 -27 13 -46 17 -48 11 -2 -5 -15 -8 -28 -5 -18 3 -25 0 -25 -12 0 -15 -13 -16 -112 -10 -62 3 -119 7 -125 10 -10 2 -13 64 -13 262 0 326 6 412 30 412 10 0 20 10 23 21 6 20 10 22 68 15 34 -3 91 -6 125 -6z m3533 -9 c33 -10 78 -33 100 -50 131 -104 145 -418 26 -550 -18 -20 -68 -54 -111 -76 -77 -40 -78 -40 -193 -40 -100 0 -123 3 -166 23 -27 13 -63 35 -78 50 -89 84 -119 269 -71 432 27 90 146 194 251 219 67 16 177 12 242 -8z m-562 -10 c48 -22 85 -77 61 -92 -7 -5 -21 -9 -30 -9 -10 0 -18 -4 -18 -9 0 -5 -13 -11 -30 -14 l-30 -6 0 -226 0 -225 50 0 50 0 0 -40 c0 -36 -2 -40 -25 -40 -16 0 -25 -6 -25 -15 0 -9 -9 -15 -25 -15 -25 0 -25 0 -25 -96 0 -81 -2 -95 -15 -90 -8 3 -22 9 -30 12 -11 5 -15 -1 -15 -20 l0 -26 -67 33 c-38 19 -92 42 -120 51 l-53 18 0 58 0 59 -42 3 c-42 3 -43 4 -43 38 0 28 4 36 21 38 12 2 24 12 27 23 3 10 12 19 21 19 14 0 16 26 16 225 0 174 3 232 14 253 15 30 82 87 118 102 42 17 169 11 215 -9z m-3644 -1279 c24 -14 43 -51 108 -212 43 -107 83 -210 88 -227 17 -61 285 -713 293 -713 4 0 116 72 248 160 264 175 273 179 356 141 46 -21 78 -57 93 -104 100 -320 335 -1017 343 -1017 5 0 32 19 59 43 l50 43 4 220 c4 232 12 294 48 357 l22 39 5 -268 c5 -246 6 -266 21 -252 54 54 132 73 187 44 30 -16 69 -56 97 -101 11 -16 52 -81 92 -144 l73 -114 0 -108 c0 -59 -4 -110 -8 -113 -5 -3 -62 77 -127 177 -132 205 -167 243 -229 252 -70 11 -102 -10 -332 -217 l-22 -19 -125 383 c-69 211 -147 448 -173 528 -36 113 -53 151 -78 176 -41 41 -115 68 -160 60 -21 -4 -126 -67 -260 -156 -123 -82 -230 -151 -236 -152 -12 -3 -19 15 -205 472 -59 146 -148 364 -197 485 -49 121 -98 244 -109 272 -13 34 -35 65 -61 88 l-41 35 74 -21 c41 -11 87 -28 102 -37z m1717 -2852 l0 -520 -23 0 c-58 0 -56 -19 -54 504 l2 478 35 29 c19 16 36 29 37 29 2 0 3 -234 3 -520z"/>
<path d="M3200 4870 c0 -5 7 -10 15 -10 8 0 15 5 15 10 0 6 -7 10 -15 10 -8 0 -15 -4 -15 -10z"/>
</g>
<g id="layer105" fill="#205254" stroke="none">
<path d="M0 3390 l0 -3390 3390 0 3390 0 0 3390 0 3390 -3390 0 -3390 0 0 -3390z m1438 2478 c-4 -10 -108 -14 -466 -16 -407 -2 -462 0 -462 13 0 13 57 15 466 15 368 0 465 -3 462 -12z m4592 -3 c0 -13 -243 -15 -2124 -15 -1176 0 -2127 4 -2130 9 -3 4 -3 11 1 15 3 3 962 6 2130 6 1880 0 2123 -2 2123 -15z m-4515 -160 c27 -17 52 -24 67 -20 37 8 98 -42 133 -110 l30 -59 0 -360 0 -361 -27 -3 c-16 -2 -28 -8 -28 -13 0 -5 -20 -9 -45 -9 l-44 0 -3 359 c-3 347 -4 361 -24 388 -39 53 -81 73 -151 73 l-64 0 -17 -37 c-15 -33 -17 -85 -20 -395 l-3 -358 -25 0 c-15 0 -24 -6 -24 -15 0 -13 -22 -15 -135 -15 l-135 0 0 332 c0 373 6 416 66 486 47 55 130 109 194 126 30 8 90 15 133 15 67 1 85 -3 122 -24z m551 5 l64 0 0 -235 c0 -190 3 -242 16 -274 8 -22 22 -42 30 -45 12 -5 14 35 14 259 l0 265 25 0 c16 0 25 6 25 15 0 13 20 15 124 15 l124 0 4 -237 c3 -214 5 -242 23 -277 41 -81 44 -66 47 216 l3 263 23 3 c12 2 22 10 22 18 0 12 21 14 128 12 l127 -3 -4 -290 c-3 -215 -7 -299 -17 -324 -13 -30 -12 -33 4 -26 9 4 27 10 40 12 12 3 22 12 22 20 0 8 9 17 20 20 19 5 20 16 22 282 l3 276 23 3 c12 2 22 10 22 18 0 12 21 14 128 12 l127 -3 -3 -279 -4 -279 39 6 c21 4 48 7 61 7 l22 0 0 255 0 255 25 0 c18 0 25 5 25 20 0 20 5 20 126 18 l126 -3 -1 -210 c0 -115 3 -226 8 -245 5 -19 9 -27 10 -17 1 11 9 17 27 17 19 0 25 4 20 15 -4 13 9 15 84 15 l89 0 10 -37 c6 -21 12 -58 13 -82 4 -61 28 -67 28 -7 0 40 3 46 25 52 14 3 25 12 25 19 0 10 86 35 121 35 3 0 4 -28 2 -62 -4 -53 -2 -67 15 -88 16 -20 29 -24 73 -25 49 0 54 2 63 27 22 63 -27 109 -179 167 -136 52 -185 109 -185 215 0 77 19 117 79 164 66 52 107 65 195 60 59 -3 81 -8 115 -31 39 -26 44 -27 60 -13 29 26 88 46 139 46 42 0 151 -22 172 -35 5 -3 3 -21 -3 -40 -9 -29 -14 -34 -34 -29 -17 5 -23 2 -23 -10 0 -9 -7 -16 -15 -16 -13 0 -15 -31 -15 -219 0 -131 -4 -231 -11 -248 -22 -58 -91 -106 -184 -128 l-50 -12 103 -52 c530 -273 921 -763 1067 -1340 48 -189 59 -283 59 -506 0 -199 -5 -255 -40 -440 l-5 -30 19 31 c39 62 133 82 202 43 38 -22 70 -64 70 -95 0 -15 -4 -14 -27 8 -40 37 -66 48 -113 48 -46 0 -85 -17 -118 -52 -21 -23 -90 -228 -282 -843 -35 -110 -64 -202 -66 -204 -2 -2 -35 25 -74 60 -39 35 -81 69 -93 76 -35 20 -105 16 -148 -9 -47 -26 -39 -10 -234 -473 -81 -192 -151 -354 -155 -358 -4 -4 -40 47 -81 115 -41 67 -77 127 -81 133 -3 5 17 24 46 41 l53 31 44 -73 c24 -41 46 -74 49 -74 6 0 64 133 292 670 53 125 83 162 145 179 52 15 63 14 107 -9 48 -24 44 -29 125 135 113 227 179 468 202 731 9 106 6 341 -5 351 -1 2 -340 -33 -752 -77 -412 -44 -757 -80 -767 -80 -14 0 -18 6 -15 27 l3 28 405 41 c768 79 914 95 917 98 5 5 -33 176 -55 248 -76 246 -203 485 -359 678 -71 88 -279 293 -292 288 -5 -2 -168 -214 -362 -471 -312 -414 -354 -466 -367 -453 -14 13 31 77 387 551 221 295 405 543 408 550 13 36 -312 208 -527 279 -190 63 -433 106 -592 106 -50 0 -54 -2 -68 -33 -10 -22 -33 -42 -75 -64 -50 -27 -71 -32 -128 -33 -74 0 -112 14 -162 60 l-30 28 -93 -24 c-179 -46 -317 -105 -588 -251 -257 -138 -439 -281 -614 -478 l-53 -60 29 50 c203 362 496 648 857 835 64 34 105 61 97 64 -8 2 -32 10 -53 16 -21 7 -54 25 -72 41 -27 24 -34 27 -44 15 -7 -8 -34 -26 -61 -40 -64 -34 -145 -35 -209 -4 -27 13 -46 17 -48 11 -2 -5 -15 -8 -28 -5 -18 3 -25 0 -25 -12 0 -15 -13 -16 -112 -10 -62 3 -119 7 -125 10 -10 2 -13 64 -13 262 0 326 6 412 30 412 10 0 20 10 23 21 6 20 10 22 68 15 34 -3 91 -6 125 -6z m3533 -9 c33 -10 78 -33 100 -50 131 -104 145 -418 26 -550 -18 -20 -68 -54 -111 -76 -77 -40 -78 -40 -193 -40 -100 0 -123 3 -166 23 -27 13 -63 35 -78 50 -89 84 -119 269 -71 432 27 90 146 194 251 219 67 16 177 12 242 -8z m-562 -10 c48 -22 85 -77 61 -92 -7 -5 -21 -9 -30 -9 -10 0 -18 -4 -18 -9 0 -5 -13 -11 -30 -14 l-30 -6 0 -226 0 -225 50 0 50 0 0 -40 c0 -36 -2 -40 -25 -40 -16 0 -25 -6 -25 -15 0 -9 -9 -15 -25 -15 -25 0 -25 0 -25 -96 0 -81 -2 -95 -15 -90 -8 3 -22 9 -30 12 -11 5 -15 -1 -15 -20 l0 -26 -67 33 c-38 19 -92 42 -120 51 l-53 18 0 58 0 59 -42 3 c-42 3 -43 4 -43 38 0 28 4 36 21 38 12 2 24 12 27 23 3 10 12 19 21 19 14 0 16 26 16 225 0 174 3 232 14 253 15 30 82 87 118 102 42 17 169 11 215 -9z m-3644 -1279 c24 -14 43 -52 113 -225 46 -114 84 -212 84 -218 0 -5 9 -28 19 -52 10 -23 35 -85 56 -137 20 -52 41 -99 46 -104 5 -6 9 -16 9 -23 0 -7 9 -35 21 -61 26 -58 28 -64 74 -182 20 -52 41 -99 46 -105 5 -5 9 -18 9 -28 0 -12 5 -17 14 -14 8 3 121 76 252 161 259 171 268 174 350 137 74 -33 63 -9 236 -541 48 -146 110 -336 138 -422 28 -87 56 -158 62 -158 5 0 32 19 59 43 l50 43 4 227 c4 232 11 282 49 352 l21 40 5 -269 c5 -248 6 -268 21 -254 54 54 132 73 187 44 30 -16 69 -56 97 -101 11 -16 52 -81 92 -144 l73 -114 -1 -126 c0 -101 -3 -122 -12 -108 -7 10 -65 100 -130 200 -64 100 -129 192 -142 204 -14 12 -43 28 -65 34 -60 18 -102 0 -195 -82 -44 -38 -101 -88 -127 -110 l-46 -40 -132 403 c-72 222 -150 459 -172 528 -31 94 -49 133 -72 156 -41 41 -115 68 -160 60 -21 -4 -126 -67 -260 -156 -123 -82 -230 -151 -236 -152 -6 -2 -32 47 -56 107 -54 132 -258 632 -418 1030 -47 115 -64 147 -97 177 l-41 37 74 -20 c40 -11 86 -28 101 -37z m1717 -2852 l0 -520 -23 0 c-58 0 -56 -19 -54 504 l2 478 35 29 c19 16 36 29 37 29 2 0 3 -234 3 -520z"/>
<path d="M4226 5575 c-11 -30 -6 -135 8 -163 8 -15 23 -36 35 -46 l21 -19 0 64 c-1 82 -13 137 -38 161 -17 18 -20 18 -26 3z"/>
<path d="M5360 2157 c-30 -61 -88 -161 -128 -222 -41 -60 -75 -113 -77 -116 -2 -3 18 -27 45 -54 l48 -48 52 164 c28 90 57 182 65 204 36 107 56 177 53 180 -1 2 -28 -47 -58 -108z"/>
<path d="M5421 5602 c-31 -58 -37 -341 -10 -447 11 -39 34 -75 50 -75 33 0 45 361 16 461 -20 67 -40 90 -56 61z"/>
</g>
<g id="layer106" fill="#1b7e37" stroke="none">
<path d="M1105 4456 c-54 -24 -95 -85 -95 -142 0 -13 71 -200 159 -415 l158 -391 -34 -106 c-45 -138 -69 -252 -89 -427 -11 -91 -5 -374 10 -471 24 -154 75 -351 116 -441 5 -13 14 -33 18 -45 13 -35 99 -207 130 -261 45 -79 147 -217 225 -306 119 -134 321 -304 445 -372 23 -13 64 -36 90 -51 101 -56 222 -112 282 -129 25 -7 50 -16 55 -20 6 -4 65 -21 132 -37 137 -35 137 -35 253 23 l75 37 -3 526 c-1 290 0 545 3 567 6 34 16 48 66 89 33 26 62 47 63 45 2 -2 72 -110 156 -239 84 -129 174 -267 201 -307 l49 -72 0 -345 c0 -225 4 -347 10 -351 22 -13 297 66 432 124 l48 20 33 -57 c201 -338 322 -531 345 -549 53 -44 141 -42 192 5 21 20 76 137 206 442 97 228 183 428 191 443 l14 28 72 -68 c103 -97 160 -120 234 -92 71 27 48 -33 353 932 159 502 157 492 91 558 -75 75 -199 60 -245 -30 -8 -14 -69 -199 -136 -411 -175 -557 -193 -610 -200 -610 -4 0 -41 31 -83 69 -81 74 -116 89 -182 77 -73 -14 -84 -34 -261 -451 -91 -214 -169 -394 -173 -398 -5 -5 -45 51 -89 124 l-81 133 32 19 c18 11 58 34 89 51 31 17 92 57 135 88 l78 57 54 128 c167 397 169 400 248 422 52 15 63 14 107 -9 48 -24 44 -29 125 135 148 299 227 673 206 981 l-7 106 -47 -6 c-58 -8 -1419 -152 -1521 -161 -63 -6 -90 -15 -172 -58 l-98 -50 0 -68 0 -67 57 -51 c31 -28 55 -52 52 -55 -2 -2 -28 -16 -57 -30 l-54 -27 8 -225 c4 -123 5 -224 2 -224 -3 0 -25 30 -49 68 -24 37 -78 121 -121 186 -43 66 -78 123 -78 127 0 5 -19 22 -42 39 -34 25 -50 30 -99 30 l-58 0 -133 -115 c-73 -63 -135 -111 -139 -107 -3 4 -20 50 -37 102 -17 52 -89 275 -160 495 -72 220 -133 410 -137 422 -22 76 -131 133 -212 111 -20 -5 -137 -77 -260 -159 -123 -82 -228 -147 -233 -144 -5 3 -27 51 -49 108 -22 56 -72 181 -111 277 -40 96 -123 301 -185 455 -198 489 -191 476 -252 501 -40 17 -79 17 -118 0z"/>
</g>
<g id="layer107" fill="#286b54" stroke="none">
<path d="M1535 6014 c-62 -32 -101 -88 -91 -129 3 -13 1 -27 -5 -30 -22 -14 24 -130 48 -121 8 3 11 1 8 -4 -11 -18 57 -50 91 -44 18 3 35 1 38 -4 17 -28 111 31 141 88 17 34 13 138 -8 177 -37 70 -151 104 -222 67z"/>
<path d="M5719 4924 c-7 -9 -34 -53 -59 -97 l-45 -81 -90 -28 -90 -28 -20 27 c-31 42 -47 53 -126 85 -41 17 -98 41 -127 54 -58 26 -83 29 -113 14 -34 -19 -21 -37 61 -84 43 -25 81 -46 84 -46 3 0 25 -14 50 -30 47 -32 46 -30 130 -253 l25 -67 -22 5 c-91 21 -156 30 -177 25 -47 -11 -27 -34 60 -69 47 -18 99 -39 115 -47 85 -36 83 -36 131 -2 24 17 44 35 44 40 0 5 -12 55 -27 110 -31 116 -42 94 88 178 76 49 77 50 109 132 18 46 39 98 47 117 14 32 14 35 -3 48 -23 17 -29 16 -45 -3z"/>
<path d="M3370 4855 c-38 -58 -118 -95 -203 -95 -73 0 -113 14 -159 58 -23 21 -33 24 -68 18 -39 -6 -230 -65 -275 -85 -11 -4 -31 -13 -45 -18 -41 -16 -209 -100 -305 -152 -49 -27 -103 -57 -120 -66 -117 -62 -253 -164 -377 -283 -104 -100 -228 -242 -228 -261 0 -6 8 -30 19 -54 10 -23 36 -85 56 -137 21 -52 42 -99 47 -105 4 -5 8 -15 8 -22 0 -7 9 -35 21 -61 12 -26 25 -56 29 -67 55 -138 78 -193 91 -217 5 -10 9 -25 9 -34 0 -23 13 -16 178 94 295 198 318 212 362 212 48 0 110 -29 137 -64 11 -14 42 -91 70 -173 55 -165 228 -692 269 -821 14 -45 30 -82 36 -82 6 0 33 21 60 46 l49 45 4 225 c5 288 4 283 73 386 42 65 127 70 256 15 l48 -20 97 49 96 49 478 636 c262 350 477 638 477 641 0 5 -92 68 -120 82 -8 4 -37 20 -65 36 -62 35 -116 62 -248 120 -140 61 -422 121 -632 135 l-100 7 -25 -37z"/>
<path d="M1105 4456 c-54 -24 -95 -85 -95 -142 0 -13 71 -200 159 -415 l158 -391 -34 -106 c-45 -138 -69 -252 -89 -427 -11 -91 -5 -374 10 -471 24 -154 75 -351 116 -441 5 -13 14 -33 18 -45 13 -35 99 -207 130 -261 45 -79 147 -217 225 -306 119 -134 321 -304 445 -372 23 -13 64 -36 90 -51 101 -56 222 -112 282 -129 25 -7 50 -16 55 -20 6 -4 65 -21 132 -37 137 -35 137 -35 253 23 l75 37 -3 526 c-1 290 0 545 3 567 6 34 16 48 66 89 33 26 62 47 63 45 2 -2 72 -110 156 -239 84 -129 174 -267 201 -307 l49 -72 0 -345 c0 -225 4 -347 10 -351 22 -13 297 66 432 124 l48 20 33 -57 c201 -338 322 -531 345 -549 53 -44 141 -42 192 5 21 20 76 137 206 442 97 228 183 428 191 443 l14 28 72 -68 c103 -97 160 -120 234 -92 71 27 48 -33 353 932 159 502 157 492 91 558 -75 75 -199 60 -245 -30 -8 -14 -69 -199 -136 -411 -175 -557 -193 -610 -200 -610 -4 0 -41 31 -83 69 -81 74 -116 89 -182 77 -73 -14 -84 -34 -261 -451 -91 -214 -169 -394 -173 -398 -5 -5 -45 51 -89 124 l-81 133 32 19 c18 11 58 34 89 51 31 17 92 57 135 88 l78 57 54 128 c30 71 77 181 104 246 54 127 90 171 150 182 32 6 36 13 79 113 120 278 177 576 165 864 l-5 139 79 39 c43 22 79 43 79 46 0 3 -7 4 -15 0 -8 -3 -50 -8 -93 -11 -42 -3 -88 -8 -102 -10 -14 -3 -50 -7 -80 -10 -30 -3 -77 -8 -103 -11 -60 -8 -81 -10 -182 -18 -44 -4 -91 -9 -105 -11 -14 -3 -50 -7 -80 -10 -30 -3 -75 -7 -100 -10 -59 -8 -110 -13 -190 -20 -36 -3 -81 -8 -101 -11 -36 -5 -51 -7 -169 -19 -36 -4 -81 -8 -100 -10 -19 -3 -71 -7 -115 -10 -71 -6 -91 -12 -177 -57 l-98 -51 0 -68 0 -67 57 -51 c31 -28 55 -52 52 -55 -2 -2 -28 -16 -57 -30 l-54 -27 8 -225 c4 -123 5 -224 2 -224 -3 0 -25 30 -49 68 -24 37 -78 121 -121 186 -43 66 -78 123 -78 127 0 5 -19 22 -42 39 -34 25 -50 30 -99 30 l-58 0 -133 -115 c-73 -63 -135 -111 -139 -107 -3 4 -20 50 -37 102 -17 52 -89 275 -160 495 -72 220 -133 410 -137 422 -22 76 -131 133 -212 111 -20 -5 -137 -77 -260 -159 -123 -82 -228 -147 -233 -144 -5 3 -27 51 -49 108 -22 56 -72 181 -111 277 -40 96 -123 301 -185 455 -198 489 -191 476 -252 501 -40 17 -79 17 -118 0z"/>
<path d="M4199 3943 c-161 -213 -381 -504 -488 -646 l-194 -257 22 -48 23 -48 166 18 c271 28 1020 106 1247 129 116 12 213 24 217 28 11 10 -27 168 -72 303 -67 202 -169 393 -304 573 -64 84 -226 257 -288 306 l-37 30 -292 -388z"/>
<path d="M5505 4265 c-34 -33 -34 -87 1 -122 22 -22 32 -25 67 -20 50 7 76 37 77 89 0 71 -93 106 -145 53z"/>
</g>
<g id="layer108" fill="#2c9047" stroke="none">
<path d="M5711 4908 c-8 -13 -32 -54 -54 -93 -22 -38 -41 -71 -42 -73 -1 -1 -42 -14 -90 -28 l-89 -27 -35 41 c-34 39 -118 81 -284 144 -31 12 -90 -6 -84 -26 2 -6 61 -45 131 -86 l127 -75 55 -144 c29 -80 52 -146 50 -148 -2 -3 -39 3 -82 12 -79 16 -148 13 -142 -6 4 -13 262 -119 286 -119 9 0 34 15 54 33 l38 32 -30 105 c-16 58 -30 106 -30 107 0 0 44 28 98 62 l98 60 43 111 c24 61 40 117 37 125 -8 22 -39 18 -55 -7z"/>
<path d="M1133 4460 c-18 -4 -44 -15 -59 -25 -36 -23 -67 -97 -59 -137 4 -17 76 -201 161 -410 85 -208 154 -384 154 -391 0 -7 -4 -17 -9 -22 -14 -16 -64 -187 -86 -295 -18 -95 -24 -135 -30 -240 -3 -47 -8 -98 -10 -114 -13 -76 19 -349 61 -526 42 -180 156 -447 242 -567 12 -17 22 -34 22 -39 0 -8 43 -67 126 -172 120 -152 355 -358 512 -449 40 -23 253 -129 290 -144 12 -5 32 -13 45 -19 19 -8 71 -25 182 -60 17 -5 59 -16 94 -24 l64 -15 99 48 100 47 -1 540 c0 296 3 551 7 566 6 24 105 118 123 118 4 0 97 -139 208 -309 l201 -308 0 -346 c0 -190 4 -348 9 -351 23 -14 359 87 463 140 52 27 72 31 43 10 -17 -12 -7 -32 161 -310 164 -272 182 -298 219 -316 53 -26 81 -25 135 3 l45 22 192 445 c105 245 193 449 196 455 2 5 37 -21 78 -58 77 -71 139 -107 180 -107 41 1 107 36 122 67 8 15 83 244 167 508 83 264 176 555 205 647 57 178 59 205 20 264 -19 29 -87 64 -125 64 -37 0 -106 -35 -124 -63 -9 -13 -47 -123 -85 -243 -172 -544 -254 -799 -257 -803 -2 -2 -37 27 -77 66 -86 83 -133 103 -197 84 -22 -6 -51 -22 -65 -34 -16 -15 -79 -151 -191 -417 -92 -217 -169 -398 -173 -402 -3 -4 -42 51 -85 122 -43 72 -83 130 -88 130 -5 0 -31 -11 -58 -25 -27 -14 -53 -25 -57 -25 -4 0 39 25 96 55 118 62 315 191 347 226 11 13 44 80 73 149 136 325 144 340 177 370 19 16 49 32 67 35 32 6 36 13 79 113 120 278 177 576 165 864 l-5 139 76 39 c43 21 73 39 67 40 -10 0 -1501 -156 -1570 -165 -22 -3 -80 -27 -130 -54 l-90 -48 -3 -63 -3 -62 61 -56 61 -56 -57 -30 -56 -31 1 -223 c1 -125 -2 -221 -7 -218 -5 3 -66 95 -137 205 -70 111 -139 208 -153 217 -29 19 -99 29 -136 20 -14 -3 -82 -56 -151 -116 -69 -61 -129 -110 -134 -110 -5 0 -12 12 -16 28 -5 23 -219 681 -302 932 -14 41 -32 87 -39 102 -19 38 -101 78 -157 78 -47 0 -31 10 -413 -243 -56 -37 -106 -67 -111 -67 -4 0 -125 288 -268 641 -143 353 -266 650 -274 661 -13 20 -86 58 -106 57 -5 -1 -25 -4 -42 -9z m3037 -3445 c0 -2 -13 -11 -30 -20 -38 -19 -40 -11 -2 9 31 17 32 18 32 11z"/>
</g>
<g id="layer109" fill="#307d76" stroke="none">
<path d="M1542 6015 c-18 -8 -31 -19 -28 -24 3 -5 -2 -8 -12 -7 -10 0 -16 -6 -16 -16 1 -10 -2 -15 -7 -13 -16 11 -35 -51 -34 -111 1 -63 26 -121 46 -109 5 4 8 1 7 -7 -2 -7 5 -12 14 -12 10 1 16 -2 13 -6 -9 -15 15 -22 83 -24 78 -2 114 17 148 78 36 64 16 212 -28 203 -7 -1 -12 5 -13 13 0 21 -63 50 -105 50 -19 -1 -50 -7 -68 -15z"/>
<path d="M3370 4853 c-36 -55 -119 -94 -202 -95 -76 0 -112 13 -155 54 l-32 31 -73 -17 c-77 -18 -206 -59 -248 -77 -14 -7 -38 -17 -55 -24 -192 -79 -529 -273 -665 -384 -144 -116 -356 -349 -347 -380 6 -17 101 -253 116 -286 25 -56 62 -147 85 -208 14 -37 33 -84 42 -105 9 -20 23 -52 31 -70 9 -21 18 -30 26 -25 7 4 115 76 241 160 210 140 234 153 274 153 52 0 99 -20 134 -58 26 -28 35 -54 269 -764 57 -175 107 -318 111 -318 4 0 31 21 60 48 l53 47 0 205 c0 254 9 312 61 388 31 44 46 58 74 64 42 9 127 -6 194 -35 l48 -20 97 49 96 49 348 465 c191 256 406 542 477 635 71 94 128 174 127 179 -9 28 -424 246 -469 246 -8 0 -18 4 -24 9 -5 6 -27 15 -49 20 -22 6 -81 22 -132 35 -105 28 -254 51 -393 61 l-96 7 -24 -39z"/>
<path d="M1133 4460 c-18 -4 -44 -15 -59 -25 -36 -23 -67 -97 -59 -137 4 -17 76 -201 161 -410 85 -208 154 -384 154 -391 0 -7 -4 -17 -9 -22 -14 -16 -64 -187 -86 -295 -18 -95 -24 -135 -30 -240 -3 -47 -8 -98 -10 -114 -13 -76 19 -349 61 -526 42 -180 156 -447 242 -567 12 -17 22 -34 22 -39 0 -8 43 -67 126 -172 120 -152 355 -358 512 -449 40 -23 253 -129 290 -144 12 -5 32 -13 45 -19 19 -8 71 -25 182 -60 17 -5 59 -16 94 -24 l64 -15 99 48 100 47 -1 540 c0 296 3 551 7 566 6 24 105 118 123 118 4 0 97 -139 208 -309 l201 -308 0 -346 c0 -190 4 -348 9 -351 27 -17 362 89 503 160 48 24 88 42 88 39 0 -2 -23 -16 -50 -30 -27 -14 -50 -28 -50 -31 0 -3 80 -138 177 -300 163 -270 181 -296 218 -314 53 -26 81 -25 135 3 l45 22 192 445 c105 245 193 449 196 455 2 5 37 -21 78 -58 77 -71 139 -107 180 -107 41 1 107 36 122 67 8 15 83 244 167 508 83 264 176 555 205 647 57 178 59 205 20 264 -19 29 -87 64 -125 64 -37 0 -106 -35 -124 -63 -9 -13 -47 -123 -85 -243 -172 -544 -254 -799 -257 -803 -2 -2 -37 27 -77 66 -86 83 -133 103 -197 84 -22 -6 -51 -22 -65 -34 -16 -15 -79 -151 -191 -417 -92 -217 -169 -398 -173 -402 -3 -4 -42 51 -85 122 -43 72 -83 130 -88 130 -5 0 -31 -11 -58 -25 -27 -14 -53 -25 -57 -25 -4 0 39 25 96 55 118 62 315 191 347 226 21 25 54 99 149 334 30 75 63 149 74 164 17 24 59 48 111 64 17 5 90 170 132 299 64 199 102 494 91 701 -5 90 -7 97 -27 97 -29 0 -1588 -170 -1603 -175 -9 -3 -13 -26 -12 -72 l0 -68 59 -49 59 -48 -61 -32 -61 -31 2 -230 1 -230 -82 127 c-46 70 -108 168 -139 216 -62 98 -96 122 -169 122 -55 0 -67 -7 -203 -127 -64 -56 -121 -103 -126 -103 -5 0 -12 12 -16 28 -5 23 -219 681 -302 932 -14 41 -32 87 -39 102 -19 38 -101 78 -157 78 -47 0 -31 10 -413 -243 -56 -37 -106 -67 -111 -67 -4 0 -125 288 -268 641 -143 353 -266 650 -274 661 -13 20 -86 58 -106 57 -5 -1 -25 -4 -42 -9z"/>
</g>
<g id="layer110" fill="#2eb452" stroke="none">
<path d="M1570 5963 c-8 -3 -27 -17 -42 -31 -24 -22 -28 -33 -28 -81 1 -79 39 -121 110 -121 108 0 157 133 76 209 -24 23 -87 36 -116 24z"/>
<path d="M4390 2895 c-410 -46 -758 -85 -775 -87 -30 -3 -30 -3 -32 -73 l-2 -70 59 -49 59 -48 -59 -32 -60 -31 -6 -841 c-4 -537 -3 -844 3 -847 14 -9 189 35 313 78 214 75 702 343 776 426 21 25 54 99 149 334 30 75 63 149 74 164 17 24 59 48 111 64 17 5 90 170 132 299 64 199 102 494 91 701 l-6 97 -41 -1 c-22 -1 -376 -39 -786 -84z"/>
</g>
<g id="layer111" fill="#8aa01e" stroke="none">
<path d="M3628 2532 l-47 -27 -6 -841 c-4 -519 -3 -844 3 -848 13 -8 190 37 312 79 214 75 702 343 776 426 25 28 127 264 122 284 -4 18 -1077 949 -1097 952 -9 2 -37 -9 -63 -25z"/>
</g>
<g id="layer112" fill="#86a832" stroke="none">
<path d="M1533 5937 c-11 -12 -19 -27 -16 -34 2 -6 -1 -14 -6 -18 -15 -9 -13 -87 2 -105 7 -8 18 -15 25 -15 6 0 12 -4 11 -9 -2 -24 80 -36 111 -16 8 5 11 10 6 10 -5 0 -1 9 9 20 10 11 22 17 28 13 6 -3 7 -1 3 5 -4 7 -4 17 0 23 3 6 8 29 9 50 4 43 -19 81 -51 85 -106 14 -111 14 -131 -9z"/>
<path d="M5671 4838 c-30 -51 -55 -94 -56 -96 -1 -1 -42 -14 -90 -28 l-89 -27 -35 41 c-30 34 -60 51 -173 98 -128 52 -140 56 -168 44 -17 -7 -29 -18 -27 -24 2 -6 61 -45 131 -86 l127 -75 55 -144 c29 -80 52 -146 50 -149 -3 -2 -41 4 -85 13 -80 16 -145 13 -139 -7 4 -12 262 -118 286 -118 9 0 34 15 54 33 l38 32 -30 105 c-16 58 -30 106 -30 107 0 0 44 28 98 62 l98 60 43 111 c43 113 46 140 13 140 -12 0 -35 -29 -71 -92z"/>
<path d="M5506 4259 c-34 -40 -33 -74 3 -110 36 -36 70 -37 110 -3 24 20 31 34 31 60 0 79 -93 114 -144 53z"/>
<path d="M3628 2532 l-47 -27 -6 -841 c-4 -519 -3 -844 3 -848 13 -8 189 37 311 79 92 32 378 167 391 184 3 4 52 40 110 81 58 41 161 129 230 196 107 105 128 131 149 182 13 33 22 65 20 70 -7 17 -1081 947 -1098 949 -9 2 -37 -9 -63 -25z"/>
</g>
<g id="layer113" fill="#c4e12e" stroke="none">
<path d="M1530 5935 c-5 -6 -7 -15 -4 -18 4 -4 -1 -18 -10 -31 -18 -29 -21 -62 -5 -71 6 -4 8 -14 4 -23 -3 -9 -3 -13 1 -10 4 4 18 -2 32 -12 75 -59 183 15 156 108 -4 15 -8 32 -9 39 -1 22 -17 28 -86 29 -43 1 -73 -3 -79 -11z"/>
<path d="M5712 4900 c-9 -17 -35 -60 -57 -97 l-40 -67 -90 -27 -90 -27 -40 43 c-33 36 -64 54 -173 99 -128 53 -135 55 -163 41 -16 -9 -29 -17 -29 -19 0 -3 56 -37 125 -76 68 -40 129 -77 134 -84 10 -12 122 -298 118 -302 -1 -1 -43 6 -92 16 -85 18 -135 18 -135 0 0 -4 62 -33 137 -64 147 -61 146 -61 202 -15 l24 20 -28 110 c-24 93 -26 112 -14 120 8 5 48 30 91 55 42 24 80 50 85 57 5 7 29 61 53 120 36 90 41 110 29 118 -22 14 -29 11 -47 -21z"/>
<path d="M5535 4279 c-32 -18 -45 -40 -45 -76 0 -45 30 -73 78 -73 49 0 76 27 76 76 0 57 -63 99 -109 73z"/>
<path d="M3580 1661 c0 -761 2 -841 16 -841 9 0 52 9 97 20 253 64 490 173 702 323 107 76 348 303 343 322 -2 7 -199 183 -438 391 -239 208 -499 433 -577 502 l-143 124 0 -841z"/>
</g>
<g id="layer114" fill="#cecece" stroke="none">
<path d="M3380 4867 c0 -19 -48 -61 -100 -88 -90 -45 -237 -24 -283 42 l-15 21 -89 -22 c-180 -45 -330 -108 -583 -245 -290 -156 -495 -320 -664 -531 l-57 -72 71 -173 c39 -96 99 -241 132 -324 34 -82 67 -164 75 -182 l13 -32 236 155 c129 85 247 159 261 165 42 16 124 -13 164 -59 30 -33 55 -100 204 -560 94 -287 173 -522 176 -522 3 0 28 21 57 48 l52 47 5 245 c6 234 7 247 32 302 13 31 38 69 54 84 27 25 36 28 98 27 48 -1 87 -9 131 -27 l63 -25 99 52 98 52 470 627 c258 345 470 632 470 638 0 16 -131 97 -260 161 -251 125 -578 208 -822 209 -66 0 -88 -3 -88 -13z"/>
<path d="M1322 3473 c-6 -10 -21 -56 -35 -103 -198 -656 -56 -1347 384 -1875 259 -310 640 -549 1036 -649 56 -14 112 -26 125 -26 13 0 63 20 111 44 l89 42 -1 552 c0 304 -3 552 -6 553 -4 0 -42 -29 -85 -65 -87 -74 -124 -91 -175 -82 -35 7 -88 45 -104 75 -5 9 -89 259 -186 556 -97 297 -180 543 -184 547 -3 4 -105 -58 -225 -137 -120 -80 -231 -152 -246 -160 -63 -32 -157 -9 -194 47 -8 13 -76 173 -150 357 -75 184 -138 336 -140 339 -3 2 -9 -5 -14 -15z"/>
</g>
<g id="layer115" fill="#dde3e3" stroke="none">
<path d="M3265 4769 c-50 -23 -140 -25 -195 -3 -47 19 -103 15 -260 -17 -294 -60 -618 -214 -860 -408 -130 -105 -350 -337 -350 -370 0 -11 79 -216 111 -288 10 -23 39 -95 65 -160 25 -65 52 -131 59 -148 7 -16 20 -47 29 -67 8 -21 17 -38 21 -38 3 0 110 70 238 155 253 169 277 179 350 151 85 -32 83 -28 270 -597 95 -288 177 -524 183 -524 6 0 31 19 57 41 l47 42 3 244 2 243 33 67 c18 37 45 76 59 88 36 28 114 26 212 -6 l78 -26 89 45 89 45 473 627 c259 346 470 630 468 632 -2 2 -36 -12 -75 -31 -39 -20 -75 -36 -81 -36 -6 0 -54 26 -108 59 -286 172 -583 269 -902 294 -51 4 -74 1 -105 -14z"/>
<path d="M1317 3453 c-75 -189 -126 -528 -112 -757 40 -699 398 -1286 1002 -1642 122 -72 300 -148 448 -191 159 -46 181 -45 286 4 l87 41 3 253 c2 140 2 389 -1 553 l-5 300 -75 -65 c-41 -36 -85 -71 -97 -77 -51 -28 -143 -6 -181 42 -11 15 -41 89 -66 164 -24 75 -106 325 -180 554 l-137 417 -239 -159 c-147 -98 -253 -162 -275 -166 -41 -7 -113 16 -140 46 -9 10 -81 177 -160 370 l-142 351 -16 -38z"/>
</g>
<g id="layer116" fill="#f5f5f5" stroke="none">
<path d="M2915 4764 c-49 -8 -137 -26 -195 -40 -401 -99 -806 -357 -1065 -677 -30 -38 -55 -72 -55 -76 0 -9 264 -662 277 -685 7 -13 19 -9 78 31 39 26 148 98 244 160 190 124 208 130 286 94 74 -33 85 -56 203 -418 61 -186 121 -369 134 -408 l23 -70 5 130 c5 103 10 140 27 177 33 72 103 141 176 172 34 15 72 32 84 38 34 17 161 4 221 -22 l53 -23 23 24 c28 29 936 1236 936 1244 0 13 -164 112 -275 166 -149 72 -321 130 -488 164 -159 32 -310 43 -332 25 -26 -21 -153 -25 -199 -6 -44 18 -41 18 -161 0z"/>
<path d="M1327 3473 c-2 -4 -14 -37 -25 -73 -132 -409 -131 -830 3 -1235 101 -308 254 -556 484 -786 268 -267 569 -439 930 -530 90 -23 116 -27 122 -17 5 7 9 241 9 521 l0 507 -53 0 c-62 0 -110 26 -138 75 -15 25 -320 944 -351 1055 -5 19 -13 39 -18 43 -4 5 -111 -60 -236 -144 -126 -84 -245 -157 -264 -162 -20 -6 -53 -7 -74 -3 -64 12 -98 56 -154 196 -86 215 -224 555 -227 558 -2 2 -5 0 -8 -5z"/>
</g>


</svg>