<!DOCTYPE svg PUBLIC "-//W3C//DTD SVG 20010904//EN" "http://www.w3.org/TR/2001/REC-SVG-20010904/DTD/svg10.dtd">
<svg version="1.0" xmlns="http://www.w3.org/2000/svg" width="678px" height="678px" viewBox="0 0 6780 6780" preserveAspectRatio="xMidYMid meet">
<g id="layer101" fill="#133434" stroke="none">
<path d="M0 3390 l0 -3390 3390 0 3390 0 0 3390 0 3390 -3390 0 -3390 0 0 -3390z"/>
</g>
<g id="layer102" fill="#214040" stroke="none">
<path d="M0 3390 l0 -3390 3390 0 3390 0 0 3390 0 3390 -3390 0 -3390 0 0 -3390z m1298 2655 c74 -33 132 -93 158 -163 16 -42 19 -93 22 -444 l3 -398 -25 0 -26 0 0 343 c0 188 -5 371 -10 406 -29 176 -138 263 -355 281 l-100 8 135 -2 c125 -2 140 -4 198 -31z m604 -242 c4 -280 9 -315 55 -365 14 -16 14 -18 -2 -24 -38 -15 -80 37 -95 115 -5 29 -10 159 -10 287 l0 234 -111 0 c-71 0 -108 4 -104 10 4 6 60 10 135 10 l128 0 4 -267z m2472 238 c30 -19 34 -25 24 -40 -10 -16 -13 -15 -41 11 -17 15 -49 35 -72 43 l-40 15 47 -4 c25 -2 62 -13 82 -25z m355 14 c35 -9 67 -18 71 -20 5 -3 3 -19 -3 -35 -15 -38 -43 -36 -39 2 2 25 -2 29 -50 42 -29 8 -66 17 -83 19 -29 4 -28 4 5 5 19 1 64 -5 99 -13z m364 8 c-7 -2 -19 -2 -25 0 -7 3 -2 5 12 5 14 0 19 -2 13 -5z m800 -30 c67 -30 109 -74 146 -153 24 -51 26 -65 26 -200 0 -128 -3 -152 -23 -202 -25 -62 -82 -127 -134 -154 -32 -16 -32 -16 7 19 86 75 120 180 113 357 -3 100 -7 123 -32 177 -44 96 -103 145 -216 180 l-45 13 50 -6 c28 -3 76 -17 108 -31z m-3571 -245 c3 -245 5 -277 22 -308 10 -19 25 -39 32 -43 22 -13 16 -27 -11 -27 -38 0 -71 39 -84 99 -6 30 -11 154 -11 296 l0 244 -112 4 -113 3 137 2 137 2 3 -272z m418 -42 c0 -207 -4 -324 -11 -347 -13 -37 -43 -75 -73 -91 -17 -9 -16 -6 5 28 24 39 24 40 27 376 l3 337 -113 4 -113 3 138 2 137 2 0 -314z m440 -21 l0 -335 55 0 55 0 0 -40 c0 -36 -2 -40 -25 -40 -22 0 -25 4 -25 35 l0 35 -50 0 -50 0 0 335 0 334 -117 4 -118 3 138 2 137 2 0 -335z m482 58 c3 -264 4 -280 25 -323 14 -27 19 -48 13 -54 -16 -16 -41 3 -63 51 -21 45 -22 65 -25 320 l-3 272 -112 4 -112 3 137 2 137 2 3 -277z m1538 261 c38 -15 80 -59 80 -83 0 -23 -40 -10 -54 18 -16 30 -54 59 -95 71 l-26 8 27 1 c15 1 46 -6 68 -15z m444 -83 c-28 -55 -36 -143 -31 -326 4 -177 13 -230 43 -266 20 -22 17 -31 -8 -27 -61 8 -95 205 -77 441 8 117 19 159 46 189 27 30 44 23 27 -11z m-952 -278 c-3 -309 -5 -315 -72 -356 l-35 -21 22 25 c40 44 43 71 43 343 0 261 3 286 35 286 7 0 9 -88 7 -277z m456 -11 l2 -281 58 -3 57 -3 3 -42 c3 -38 1 -43 -17 -43 -18 0 -21 6 -21 40 l0 40 -65 0 -65 0 0 264 c0 260 6 322 33 313 9 -3 13 -71 15 -285z m-865 241 c-12 -59 -7 -157 11 -191 8 -16 27 -39 41 -50 14 -11 25 -29 25 -41 0 -20 -3 -20 -45 11 -59 44 -85 97 -85 176 0 71 21 132 45 132 13 0 15 -7 8 -37z m-3266 -20 c-21 -46 -22 -61 -25 -450 l-3 -403 -25 0 -25 0 3 398 c3 374 4 399 23 437 16 31 51 63 72 65 1 0 -8 -21 -20 -47z m2922 -363 c25 -118 8 -205 -47 -230 l-25 -11 19 28 c22 33 25 143 6 210 l-13 42 -72 4 c-66 3 -64 3 25 5 l96 2 11 -50z m240 -12 c-27 -97 6 -154 101 -172 14 -3 -4 -4 -39 -2 -56 2 -67 6 -89 31 -22 26 -24 35 -19 93 5 62 15 81 44 82 8 0 9 -9 2 -32z m-1336 -135 c-7 -2 -19 -2 -25 0 -7 3 -2 5 12 5 14 0 19 -2 13 -5z m1970 0 c-7 -2 -19 -2 -25 0 -7 3 -2 5 12 5 14 0 19 -2 13 -5z m-2913 -70 c0 -20 -5 -24 -22 -21 -19 2 -24 10 -26 48 l-3 45 25 -24 c14 -14 26 -35 26 -48z m378 30 c-6 -8 -24 -21 -40 -29 l-28 -15 27 40 c21 29 31 36 41 29 9 -8 10 -14 0 -25z m1382 -42 c0 -6 -11 -11 -25 -11 -23 0 -25 4 -25 41 l0 41 25 -30 c14 -17 25 -35 25 -41z m1488 -106 c4 -116 -2 -139 -28 -125 -18 10 -20 21 -20 109 0 101 3 114 30 109 12 -3 16 -21 18 -93z m-2013 39 c-31 -58 -32 -94 -5 -101 23 -6 22 -21 -3 -37 -27 -17 -52 5 -55 50 -2 30 5 51 27 87 42 64 70 65 36 1z m163 -25 c23 -10 42 -25 42 -34 0 -13 21 -15 144 -15 555 0 1099 -222 1474 -602 l73 -74 -58 9 c-62 10 -118 -3 -111 -25 3 -7 70 -39 149 -71 l145 -59 47 -68 c26 -38 47 -72 47 -76 0 -4 11 -21 24 -38 39 -52 112 -195 160 -316 274 -694 149 -1487 -329 -2075 -41 -49 -96 -112 -122 -138 -47 -46 -50 -47 -66 -29 -16 18 -14 20 43 47 56 27 65 36 129 134 221 341 331 709 331 1110 0 180 -3 191 -42 191 -32 0 -1406 -146 -1470 -156 -37 -6 -38 -5 -38 23 l0 29 113 12 c61 6 360 37 662 68 l550 56 98 50 99 49 -7 42 c-45 273 -192 600 -383 852 -50 66 -236 260 -293 305 l-35 29 -95 -47 -94 -47 -338 -450 c-186 -247 -347 -461 -357 -475 -15 -20 -21 -22 -31 -13 -10 10 73 126 390 548 221 295 404 542 407 549 11 29 -233 170 -421 245 -487 192 -1050 185 -1535 -21 -170 -72 -463 -236 -595 -333 -72 -54 -261 -219 -267 -234 -2 -4 -25 -32 -52 -62 l-50 -54 33 60 c234 423 658 777 1128 939 92 32 103 33 115 19 28 -35 110 -63 183 -63 123 0 195 56 195 151 0 32 -4 38 -27 44 -31 7 -53 23 -53 37 0 10 24 4 88 -23z m-190 -3124 c2 -1027 2 -1045 -17 -1045 -55 0 -51 -70 -51 974 0 1009 1 1025 44 1090 9 14 18 26 20 26 1 0 3 -470 4 -1045z"/>
</g>
<g id="layer103" fill="#214c3d" stroke="none">
<path d="M0 3390 l0 -3390 3390 0 3390 0 0 3390 0 3390 -3390 0 -3390 0 0 -3390z m1190 2690 c96 -15 184 -62 225 -118 61 -85 65 -114 65 -540 l0 -382 -24 0 -24 0 -4 378 c-5 418 -8 442 -71 524 -64 83 -174 126 -337 129 -68 2 -71 3 -30 9 70 11 129 11 200 0z m3137 -15 c63 -19 87 -42 69 -68 -12 -15 -15 -16 -26 -2 -28 33 -72 57 -132 70 l-63 13 51 1 c28 1 73 -6 101 -14z m-3390 -1 c-3 -3 -12 -4 -19 -1 -8 3 -5 6 6 6 11 1 17 -2 13 -5z m973 -250 c0 -265 7 -329 41 -360 27 -24 24 -44 -6 -44 -28 0 -60 28 -77 68 -8 17 -13 123 -16 300 l-4 272 -109 0 c-66 0 -109 4 -109 10 0 6 53 10 140 10 l140 0 0 -256z m415 -9 c0 -283 6 -329 51 -364 21 -17 23 -22 11 -27 -46 -17 -91 21 -107 92 -5 21 -10 153 -10 292 l0 252 -110 0 c-69 0 -110 4 -110 10 0 7 48 10 138 8 l137 -3 0 -260z m415 -62 c0 -302 -2 -331 -20 -370 -11 -25 -33 -51 -52 -63 -46 -28 -56 -25 -26 8 45 48 48 75 48 413 l0 319 -110 0 c-67 0 -110 4 -110 10 0 6 52 10 135 10 l135 0 0 -327z m448 -15 l2 -338 50 0 50 0 0 -45 c0 -41 -2 -45 -25 -45 -22 0 -25 4 -25 40 l0 40 -55 0 -55 0 0 335 0 335 -110 0 c-69 0 -110 4 -110 10 0 7 48 10 138 8 l137 -3 3 -337z m413 332 l58 0 3 -267 c3 -230 6 -274 21 -313 25 -62 25 -75 2 -75 -14 0 -27 15 -45 50 -25 49 -25 55 -28 323 l-3 272 -115 0 c-83 0 -113 3 -108 11 5 8 30 10 82 5 41 -3 101 -6 133 -6z m1151 -6 c32 -9 58 -20 58 -25 0 -23 -25 -59 -42 -59 -16 0 -19 5 -13 29 6 28 5 29 -57 45 -35 9 -76 17 -93 19 -16 2 -3 5 29 6 33 0 86 -6 118 -15z m454 -10 c39 -19 88 -79 78 -95 -12 -20 -40 -7 -58 25 -23 42 -79 74 -153 86 l-58 9 76 -3 c49 -2 89 -9 115 -22z m681 -4 c63 -28 127 -91 153 -152 52 -120 49 -317 -5 -432 -29 -61 -98 -128 -148 -145 l-32 -10 25 17 c98 65 140 156 148 316 11 244 -66 373 -253 423 l-50 13 57 -4 c31 -3 78 -14 105 -26z m-250 -107 c-14 -44 -21 -96 -24 -208 -7 -192 6 -284 55 -377 8 -16 -36 -7 -51 10 -27 29 -36 68 -48 190 -20 213 16 442 69 442 18 0 18 -1 -1 -57z m-937 -250 c-3 -184 -9 -285 -17 -298 -17 -30 -55 -62 -87 -75 l-29 -11 31 30 c18 16 36 41 42 55 6 16 10 134 10 286 0 142 3 265 6 274 3 9 16 16 28 16 l21 0 -5 -277z m450 -8 l0 -285 60 0 60 0 0 -45 c0 -38 -3 -45 -19 -45 -16 0 -20 8 -23 38 l-3 37 -62 3 -63 3 0 270 c0 270 4 309 35 309 13 0 15 -41 15 -285z m-860 249 c-6 -14 -10 -55 -10 -91 0 -73 27 -145 61 -164 11 -5 19 -20 19 -34 l0 -24 -46 31 c-65 44 -87 96 -82 198 3 81 16 110 49 110 16 0 17 -4 9 -26z m-3252 -1 c-8 -10 -19 -27 -24 -38 -5 -11 -11 -204 -14 -430 l-5 -410 -27 -3 -28 -3 0 383 c0 245 4 397 11 422 12 44 58 96 85 96 15 0 16 -2 2 -17z m2902 -382 c30 -111 20 -194 -27 -230 -39 -32 -44 -26 -21 26 22 49 21 113 -2 195 l-11 37 -72 4 c-65 3 -63 3 25 5 l97 2 11 -39z m243 -23 c-22 -91 6 -149 81 -167 39 -10 38 -10 -21 -8 -101 5 -132 49 -111 155 9 46 14 52 35 52 23 0 24 -2 16 -32z m-1340 -135 c-7 -2 -19 -2 -25 0 -7 3 -2 5 12 5 14 0 19 -2 13 -5z m1970 0 c-7 -2 -19 -2 -25 0 -7 3 -2 5 12 5 14 0 19 -2 13 -5z m-2903 -75 c0 -13 -8 -18 -30 -18 -29 0 -30 1 -30 47 l0 47 30 -29 c17 -16 30 -37 30 -47z m363 30 c-10 -11 -30 -26 -46 -34 l-27 -15 32 44 c24 33 36 42 46 34 10 -8 9 -14 -5 -29z m1387 -42 c0 -12 -5 -16 -16 -12 -9 3 -20 6 -25 6 -5 0 -9 19 -9 43 l0 42 25 -30 c13 -16 24 -38 25 -49z m1490 -121 c0 -88 -3 -115 -13 -115 -30 0 -37 25 -37 127 l0 103 25 0 25 0 0 -115z m-1990 100 c0 -2 -9 -19 -20 -37 -11 -18 -20 -49 -20 -70 0 -31 3 -35 20 -31 24 6 26 -10 4 -32 -23 -23 -57 -15 -72 17 -11 24 -10 34 8 75 24 54 47 83 67 83 7 0 13 -2 13 -5z m124 -56 c40 -16 56 -27 56 -40 0 -18 6 -19 83 -13 45 3 143 1 217 -5 424 -36 817 -187 1136 -437 85 -66 267 -234 261 -240 -2 -2 -30 1 -63 7 -63 12 -119 0 -112 -23 3 -7 69 -38 149 -70 157 -63 177 -79 225 -175 14 -28 34 -59 43 -67 25 -23 132 -241 175 -357 80 -216 116 -409 123 -654 17 -569 -174 -1067 -576 -1505 l-59 -65 -21 21 -22 20 61 29 c56 27 65 36 131 137 217 333 329 710 329 1107 0 178 -3 191 -40 191 -27 0 -1381 -143 -1467 -155 -43 -6 -43 -6 -43 24 0 18 5 31 13 31 6 0 302 29 657 65 l645 66 98 47 c55 26 101 50 103 54 7 10 -32 177 -66 282 -66 205 -172 409 -308 593 -73 98 -313 343 -337 343 -8 0 -53 -19 -100 -42 l-86 -43 -355 -472 c-195 -260 -358 -474 -363 -477 -5 -3 -13 0 -19 7 -8 9 95 152 398 557 225 300 410 548 410 552 0 10 -156 107 -249 155 -323 164 -709 243 -1059 215 -304 -24 -533 -92 -829 -243 -335 -171 -444 -248 -651 -456 -155 -156 -161 -152 -44 27 164 254 405 488 672 653 100 61 283 147 397 186 l92 32 51 -35 c57 -39 114 -52 196 -43 96 10 154 66 154 147 0 28 -5 34 -40 47 -22 9 -40 22 -40 30 0 18 9 17 74 -8z m-176 -4184 c-2 -2 -18 0 -36 2 l-32 5 2 992 3 991 30 60 30 60 3 -1054 c1 -580 1 -1055 0 -1056z"/>
</g>
<g id="layer104" fill="#205355" stroke="none">
<path d="M0 3390 l0 -3390 3390 0 3390 0 0 3390 0 3390 -3390 0 -3390 0 0 -3390z m1190 2690 c96 -15 184 -62 225 -118 61 -85 65 -114 65 -540 l0 -382 -23 0 c-23 0 -24 3 -30 107 -4 58 -7 228 -7 378 0 299 -6 338 -59 412 -61 84 -151 122 -311 131 -81 5 -96 8 -65 13 64 10 135 10 205 -1z m3137 -15 c62 -19 87 -43 69 -67 -12 -17 -14 -17 -32 3 -27 30 -71 51 -134 65 l-55 12 51 1 c28 1 73 -6 101 -14z m-3390 -1 c-3 -3 -12 -4 -19 -1 -8 3 -5 6 6 6 11 1 17 -2 13 -5z m973 -250 c0 -265 7 -329 41 -360 27 -24 24 -44 -6 -44 -28 0 -60 28 -77 68 -8 17 -13 123 -16 300 l-4 272 -109 0 c-66 0 -109 4 -109 10 0 6 53 10 140 10 l140 0 0 -256z m415 -9 c0 -283 7 -329 51 -364 21 -17 23 -22 11 -27 -46 -17 -91 21 -107 92 -5 21 -10 153 -10 292 l0 252 -110 0 c-69 0 -110 4 -110 10 0 7 48 10 138 8 l137 -3 0 -260z m416 253 c0 -7 0 -157 -1 -332 -1 -296 -3 -323 -21 -358 -18 -35 -69 -78 -93 -78 -6 0 2 12 16 28 45 48 48 75 48 413 l0 319 -110 0 c-67 0 -110 4 -110 10 0 16 270 13 271 -2z m447 -330 l2 -338 50 0 50 0 0 -45 c0 -41 -2 -45 -25 -45 -22 0 -25 4 -25 40 l0 40 -55 0 -55 0 0 335 0 335 -110 0 c-69 0 -110 4 -110 10 0 7 48 10 138 8 l137 -3 3 -337z m410 336 l61 -7 3 -266 c3 -247 5 -270 26 -321 35 -88 -11 -100 -51 -13 -21 45 -22 64 -25 321 l-3 272 -115 0 c-74 0 -113 4 -109 10 7 11 121 13 213 4z m1154 -10 c32 -9 58 -20 58 -25 0 -23 -25 -59 -42 -59 -16 0 -19 5 -13 29 6 28 5 29 -57 45 -35 9 -76 17 -93 19 -16 2 -3 5 29 6 33 0 86 -6 118 -15z m454 -10 c39 -19 88 -79 78 -95 -7 -12 -44 -12 -44 0 0 17 -51 71 -81 87 -16 8 -55 19 -87 24 l-57 9 76 -3 c49 -2 89 -9 115 -22z m660 5 c66 -25 137 -86 166 -142 61 -121 62 -326 2 -454 -28 -58 -98 -126 -147 -142 l-32 -10 25 17 c98 65 140 156 148 316 11 243 -69 376 -253 422 l-50 12 42 1 c23 1 68 -9 99 -20z m-229 -116 c-14 -44 -21 -96 -24 -208 -7 -192 6 -284 55 -377 10 -21 -39 -5 -57 18 -78 99 -56 624 27 624 18 0 18 -1 -1 -57z m-1347 -9 c-6 -14 -10 -55 -10 -91 0 -73 27 -145 61 -164 11 -5 19 -20 19 -34 l0 -24 -46 31 c-66 44 -87 96 -82 200 3 69 6 82 27 99 29 24 43 16 31 -17z m410 -241 c-3 -184 -9 -285 -17 -298 -17 -30 -55 -62 -87 -75 l-29 -11 31 30 c18 16 36 41 42 55 6 16 10 134 10 286 0 142 3 265 6 274 3 9 16 16 28 16 l21 0 -5 -277z m450 -8 l0 -285 60 0 60 0 0 -45 c0 -38 -3 -45 -19 -45 -16 0 -20 8 -23 38 l-3 37 -62 3 -63 3 0 274 c0 150 3 280 6 289 3 9 15 16 25 16 18 0 19 -12 19 -285z m-4112 248 c-34 -38 -38 -94 -38 -490 l0 -393 -30 0 -30 0 0 383 c0 244 4 396 11 421 12 44 58 96 85 96 16 0 16 -2 2 -17z m2902 -382 c30 -111 20 -194 -27 -230 -36 -29 -46 -26 -29 7 23 45 29 96 16 158 -19 99 -13 93 -93 97 -65 3 -63 3 25 5 l97 2 11 -39z m250 2 c0 -5 -5 -25 -11 -46 -20 -72 16 -128 94 -148 25 -7 18 -8 -30 -6 -101 5 -132 49 -111 155 9 45 14 52 34 52 13 0 24 -3 24 -7z m-1347 -160 c-7 -2 -19 -2 -25 0 -7 3 -2 5 12 5 14 0 19 -2 13 -5z m1970 0 c-7 -2 -19 -2 -25 0 -7 3 -2 5 12 5 14 0 19 -2 13 -5z m-2903 -75 c0 -13 -8 -18 -30 -18 -29 0 -30 1 -30 47 l0 47 30 -29 c17 -16 30 -37 30 -47z m363 30 c-16 -18 -64 -48 -76 -48 -2 0 11 16 29 36 19 19 34 40 34 46 0 6 6 6 15 -2 14 -11 14 -15 -2 -32z m1387 -42 c0 -12 -5 -16 -16 -12 -9 3 -20 6 -25 6 -5 0 -9 19 -9 43 l0 42 25 -30 c13 -16 24 -38 25 -49z m1490 -121 c0 -88 -3 -115 -13 -115 -30 0 -37 25 -37 127 l0 103 25 0 25 0 0 -115z m-1990 100 c0 -2 -9 -19 -20 -37 -27 -45 -27 -98 0 -98 24 0 26 -13 4 -34 -35 -36 -79 -8 -77 50 1 41 51 124 76 124 9 0 17 -2 17 -5z m125 -56 c40 -15 55 -26 55 -39 0 -18 6 -19 78 -13 42 3 140 0 217 -6 427 -35 820 -186 1141 -437 93 -72 267 -234 260 -241 -2 -3 -29 0 -60 7 -44 9 -61 9 -83 -2 -16 -7 -28 -17 -28 -22 0 -4 65 -34 145 -66 131 -52 148 -62 178 -101 19 -24 43 -62 54 -84 12 -22 30 -52 42 -66 31 -36 127 -236 170 -350 42 -113 77 -244 102 -384 26 -140 26 -527 1 -665 -75 -404 -231 -735 -490 -1035 -52 -60 -103 -117 -113 -127 -18 -15 -20 -15 -37 8 l-18 23 60 31 c54 27 66 39 124 127 159 240 267 519 314 814 16 105 25 470 11 484 -3 4 -346 -30 -760 -74 -415 -45 -759 -81 -766 -81 -13 0 -17 60 -4 60 55 3 1313 138 1316 141 3 3 -4 44 -14 91 -65 299 -206 591 -397 828 -79 97 -280 293 -295 288 -9 -3 -484 -626 -703 -923 -13 -17 -17 -18 -29 -5 -13 13 36 83 396 563 l412 549 -25 19 c-62 47 -237 144 -345 190 -460 197 -962 219 -1439 62 -145 -48 -443 -192 -606 -293 -167 -104 -341 -252 -471 -403 -32 -37 -58 -66 -58 -63 0 9 84 152 123 211 157 234 392 462 637 615 104 66 294 157 416 200 l92 32 51 -35 c58 -40 114 -53 197 -44 94 10 154 67 154 147 0 28 -5 34 -40 47 -22 9 -40 22 -40 30 0 18 10 17 75 -8z m-177 -4184 c-2 -2 -18 0 -36 2 l-32 5 2 997 3 996 30 55 30 55 3 -1054 c1 -580 1 -1055 0 -1056z"/>
</g>
<g id="layer105" fill="#1b7e37" stroke="none">
<path d="M4675 3005 c-368 -41 -725 -78 -792 -85 -112 -10 -130 -15 -217 -55 l-96 -45 0 -78 0 -77 56 -49 56 -49 -56 -29 -56 -28 0 -850 c0 -733 2 -850 14 -850 8 0 45 7 83 16 267 61 709 270 945 446 87 65 318 284 318 301 0 6 -7 18 -16 28 -15 17 -12 20 44 48 55 28 67 40 125 128 232 350 359 807 332 1199 l-7 104 -31 -1 c-18 -1 -333 -34 -702 -74z"/>
</g>
<g id="layer106" fill="#276a53" stroke="none">
<path d="M902 6060 c-101 -19 -192 -81 -231 -159 -36 -71 -41 -132 -41 -516 l0 -375 155 0 154 0 3 418 c3 452 3 453 59 494 60 45 205 31 257 -25 55 -58 56 -71 60 -495 l4 -393 50 3 49 3 -1 392 c-1 422 -3 447 -54 523 -31 47 -93 91 -161 114 -60 20 -228 29 -303 16z"/>
<path d="M4086 6058 c-21 -6 -58 -29 -81 -52 -82 -79 -84 -219 -5 -309 39 -43 77 -64 218 -118 72 -27 129 -70 143 -106 13 -35 -6 -97 -36 -117 -15 -10 -46 -16 -79 -16 -47 0 -61 4 -88 29 -34 31 -41 71 -24 140 l8 34 -48 -7 c-98 -15 -94 -11 -94 -81 0 -78 25 -119 93 -153 70 -34 212 -49 330 -34 119 15 174 42 205 102 21 42 22 55 22 305 0 143 4 266 9 274 6 10 20 12 44 8 33 -5 36 -3 46 25 6 17 11 34 11 38 0 15 -120 40 -193 40 -87 0 -134 -15 -164 -53 l-20 -26 -19 20 c-50 55 -186 83 -278 57z m246 -126 c22 -19 26 -46 31 -203 l4 -127 -49 35 c-71 52 -91 96 -86 198 4 117 40 151 100 97z"/>
<path d="M5524 6057 c-161 -42 -240 -152 -251 -349 -15 -265 86 -409 308 -440 89 -12 203 4 269 37 90 46 147 125 171 237 18 80 6 251 -21 322 -31 80 -97 146 -176 176 -74 27 -224 36 -300 17z m175 -106 c41 -79 52 -362 21 -508 -13 -59 -43 -103 -70 -103 -27 0 -57 43 -69 100 -31 144 -21 418 19 507 16 37 23 43 49 43 25 0 34 -7 50 -39z"/>
<path d="M4927 6046 c-21 -8 -48 -22 -59 -33 -44 -39 -48 -67 -48 -358 l0 -275 -45 0 -45 0 0 -45 0 -45 45 0 45 0 0 -69 0 -68 63 -21 c49 -16 142 -56 210 -90 4 -2 7 53 7 122 l0 126 63 0 62 0 -3 45 -4 45 -59 0 -59 0 0 274 c0 151 3 281 6 290 8 20 44 21 44 1 0 -11 12 -15 45 -15 35 0 45 4 45 16 0 27 -72 91 -115 103 -54 15 -152 13 -198 -3z"/>
<path d="M1570 5667 l0 -384 125 -7 c68 -3 131 -9 140 -12 12 -5 15 4 15 57 l0 63 38 -36 c59 -57 117 -81 192 -82 75 -1 122 22 161 78 l23 34 49 -44 c131 -118 327 -89 366 53 7 23 11 163 11 351 l0 312 -140 0 -140 0 -1 -287 c-1 -159 -4 -301 -8 -318 -5 -24 -12 -31 -37 -33 -20 -2 -36 4 -48 17 -40 44 -45 85 -46 359 l0 262 -145 0 -145 0 0 -315 c0 -282 -2 -316 -16 -322 -30 -11 -68 11 -89 52 -18 37 -20 64 -23 313 l-3 272 -140 0 -139 0 0 -383z"/>
<path d="M2850 5715 l0 -335 -51 0 -50 0 3 -47 3 -48 48 -3 47 -3 0 -48 c0 -68 17 -110 63 -158 53 -55 117 -77 203 -70 111 8 178 66 172 146 -3 33 -7 36 -63 58 -32 13 -63 23 -67 23 -4 0 -4 -22 -1 -48 7 -62 -8 -92 -46 -92 -22 0 -31 7 -41 29 -14 34 -8 60 29 118 26 42 27 43 84 43 l57 0 0 50 0 50 -55 0 -55 0 0 335 0 335 -140 0 -140 0 0 -335z"/>
<path d="M3330 5665 l0 -385 88 -1 c48 0 111 -4 140 -8 l52 -7 0 54 0 55 41 -46 c67 -77 162 -86 218 -21 40 44 47 100 26 192 l-17 72 -98 0 -98 0 14 -52 c18 -69 18 -107 -1 -115 -25 -9 -51 24 -69 86 -13 46 -16 108 -16 309 l0 252 -140 0 -140 0 0 -385z"/>
<path d="M5481 5023 c-33 -60 -64 -114 -69 -120 -7 -12 -191 -73 -219 -73 -7 0 -25 19 -41 43 -28 40 -42 48 -201 115 -94 40 -178 72 -186 72 -25 0 -75 -29 -75 -43 0 -7 30 -30 68 -52 188 -108 251 -148 257 -163 67 -174 126 -334 123 -337 -1 -2 -52 5 -111 16 -91 16 -113 17 -135 7 -15 -7 -27 -17 -27 -22 0 -4 61 -32 135 -62 74 -30 149 -61 167 -69 17 -8 38 -15 47 -15 19 0 102 58 110 77 2 6 -11 69 -29 139 -19 70 -34 129 -32 130 1 1 54 34 118 73 l115 71 38 97 c21 54 47 119 57 145 17 42 17 49 3 63 -33 33 -50 18 -113 -92z"/>
<path d="M3260 4883 c-180 -13 -403 -62 -575 -124 -94 -34 -365 -168 -495 -245 -195 -116 -383 -276 -532 -453 -234 -277 -383 -610 -443 -991 -22 -140 -22 -427 -1 -570 89 -574 403 -1071 875 -1383 201 -132 435 -234 659 -286 l93 -22 99 47 100 47 2 1066 3 1066 22 45 c12 25 36 60 53 79 l31 34 77 -5 c50 -3 96 -13 130 -28 l54 -23 96 48 97 48 475 634 c261 348 476 637 478 642 5 14 -153 109 -292 177 -312 150 -678 222 -1006 197z"/>
<path d="M5280 4311 c-36 -36 -46 -73 -30 -112 39 -92 161 -92 200 0 40 97 -96 187 -170 112z"/>
<path d="M4118 3849 c-200 -265 -418 -554 -485 -643 l-121 -160 24 -48 c18 -36 30 -48 47 -48 22 0 162 15 422 45 77 8 375 40 663 69 288 30 525 56 527 58 8 8 -36 183 -76 303 -71 215 -192 434 -342 620 -69 85 -269 285 -286 285 -5 0 -173 -217 -373 -481z"/>
<path d="M5337 3074 c-1 -1 -36 -5 -77 -9 -41 -4 -88 -9 -105 -11 -16 -2 -55 -6 -85 -9 -30 -3 -71 -8 -90 -10 -19 -2 -60 -7 -90 -10 -30 -3 -71 -8 -90 -10 -33 -4 -63 -7 -193 -20 -28 -3 -68 -8 -87 -10 -34 -4 -78 -8 -190 -20 -30 -3 -71 -7 -90 -10 -19 -2 -62 -7 -95 -10 -65 -6 -130 -13 -185 -20 -19 -2 -72 -6 -116 -10 -69 -4 -96 -12 -178 -50 l-96 -45 0 -78 0 -77 56 -49 56 -49 -56 -29 -56 -28 0 -850 c0 -733 2 -850 14 -850 8 0 45 7 83 16 267 61 709 270 945 446 91 69 318 284 318 303 0 7 -9 20 -19 29 -15 14 -24 15 -40 7 -33 -18 -32 -13 3 37 233 324 370 791 353 1204 l-5 139 86 43 c63 32 79 44 59 42 -16 0 -29 -2 -30 -2z"/>
</g>
<g id="layer107" fill="#2c9047" stroke="none">
<path d="M4117 6060 c-108 -19 -167 -94 -167 -210 0 -119 61 -192 199 -240 79 -27 174 -76 196 -100 21 -23 29 -78 16 -112 -15 -40 -55 -62 -110 -61 -99 1 -143 54 -124 147 6 28 10 52 8 54 -1 1 -31 -3 -66 -10 l-64 -13 0 -67 c0 -63 2 -69 35 -103 52 -54 135 -76 287 -77 194 0 291 42 313 137 5 22 10 153 10 292 0 242 1 253 20 263 14 8 26 8 40 0 18 -10 22 -7 35 22 7 18 11 36 7 40 -15 15 -130 38 -192 38 -74 0 -142 -26 -160 -60 l-11 -21 -32 27 c-60 51 -147 70 -240 54z m196 -111 c41 -19 50 -54 55 -208 l4 -144 -43 31 c-84 57 -101 92 -101 199 1 68 12 109 36 125 15 10 21 10 49 -3z"/>
<path d="M5552 6059 c-157 -27 -248 -130 -274 -307 -24 -164 19 -323 109 -402 70 -61 155 -84 291 -78 127 6 196 32 260 102 66 72 86 138 86 291 0 101 -4 141 -18 179 -38 104 -100 166 -198 199 -60 21 -187 29 -256 16z m133 -83 c36 -36 46 -87 52 -256 6 -167 -6 -280 -35 -340 -13 -28 -24 -36 -49 -38 -28 -3 -34 1 -52 36 -30 58 -45 196 -38 352 6 149 25 231 60 255 28 20 34 19 62 -9z"/>
<path d="M4948 6051 c-46 -15 -85 -43 -104 -75 -17 -28 -19 -58 -22 -313 l-3 -283 -45 0 -44 0 0 -45 0 -45 45 0 45 0 0 -68 0 -68 48 -13 c26 -6 89 -32 140 -56 l92 -44 0 125 0 124 60 0 60 0 0 45 0 45 -60 0 -60 0 2 287 c3 274 4 288 22 291 10 2 23 -3 28 -12 10 -17 73 -23 82 -7 10 16 -39 76 -77 94 -41 21 -167 31 -209 18z"/>
<path d="M1570 5665 l0 -385 73 0 c39 0 102 -3 140 -7 l67 -6 0 62 0 61 40 -39 c22 -21 57 -47 78 -57 47 -23 152 -30 192 -14 32 13 100 82 100 101 0 6 18 -8 41 -31 55 -56 116 -82 195 -82 103 0 165 42 184 128 5 21 10 177 10 347 l0 307 -140 0 -140 0 0 -304 c0 -281 -1 -306 -19 -327 -17 -21 -21 -22 -50 -9 -62 25 -66 44 -69 358 l-3 282 -140 0 -139 0 0 -294 c0 -172 -4 -306 -10 -321 -8 -22 -15 -26 -42 -23 -37 4 -65 37 -78 94 -5 21 -10 153 -10 292 l0 252 -140 0 -140 0 0 -385z"/>
<path d="M2850 5709 l0 -340 -45 7 -45 6 0 -46 0 -46 45 0 45 0 0 -43 c0 -102 44 -178 130 -223 51 -27 182 -26 229 1 48 28 71 64 74 114 2 42 2 43 -48 62 -86 33 -80 35 -77 -29 4 -66 -9 -85 -55 -80 -19 2 -30 11 -37 29 -12 34 -4 63 33 122 30 47 31 47 86 47 l55 0 0 40 0 40 -55 0 -55 0 0 340 0 340 -140 0 -140 0 0 -341z"/>
<path d="M3330 5671 l0 -378 95 -7 c52 -3 115 -9 140 -13 l45 -6 0 59 0 59 25 -37 c36 -53 82 -78 144 -78 94 0 138 72 119 197 -16 104 -15 103 -119 103 l-91 0 8 -37 c4 -21 8 -58 9 -83 0 -39 -3 -45 -23 -48 -18 -3 -26 5 -45 45 -21 45 -22 63 -25 326 l-3 277 -140 0 -139 0 0 -379z"/>
<path d="M5532 5103 c-10 -16 -42 -70 -71 -120 l-52 -93 -102 -30 c-56 -17 -106 -32 -111 -34 -5 -1 -28 20 -50 47 -38 45 -53 54 -210 119 -170 70 -190 74 -231 44 -18 -13 -18 -16 -5 -29 8 -8 78 -52 155 -96 77 -45 145 -87 151 -94 22 -23 143 -357 129 -357 -7 0 -57 9 -112 20 -76 16 -106 18 -127 10 -15 -5 -26 -15 -24 -22 4 -11 321 -148 344 -148 25 0 104 71 104 93 0 12 -14 72 -30 132 -17 61 -30 113 -30 117 0 4 49 36 109 72 59 36 113 71 119 78 14 17 112 264 112 283 0 12 -28 35 -44 35 -2 0 -13 -12 -24 -27z"/>
<path d="M3108 4864 c-241 -35 -440 -103 -708 -242 -310 -160 -436 -248 -615 -427 -380 -380 -585 -874 -585 -1410 0 -768 434 -1462 1127 -1801 116 -56 327 -131 446 -157 l68 -15 95 47 96 46 1 1020 c0 560 4 1043 9 1073 10 63 45 137 82 171 23 22 31 23 108 19 55 -3 99 -12 131 -26 l47 -21 95 46 94 45 477 636 c370 494 475 639 467 651 -17 27 -233 149 -353 200 -186 78 -364 126 -560 151 -116 14 -405 11 -522 -6z"/>
<path d="M5294 4321 c-89 -54 -47 -191 57 -191 52 0 99 45 99 94 0 50 -18 83 -55 101 -43 20 -63 19 -101 -4z"/>
<path d="M4700 3004 c-371 -40 -736 -80 -810 -87 -125 -14 -142 -18 -225 -58 l-90 -44 -3 -72 -3 -71 60 -53 61 -53 -58 -31 -57 -30 -3 -848 -4 -849 34 7 c223 44 377 103 664 252 202 106 276 153 409 260 97 78 255 234 255 251 0 5 -9 17 -19 26 -15 14 -24 15 -40 7 -33 -18 -32 -13 3 37 233 324 370 791 353 1204 l-5 139 86 44 c48 24 83 44 77 43 -5 0 -314 -33 -685 -74z"/>
</g>
<g id="layer108" fill="#2db351" stroke="none">
<path d="M934 6061 c-176 -28 -268 -113 -294 -272 -5 -35 -10 -222 -10 -416 l0 -353 155 0 154 0 3 418 c3 371 5 420 20 448 24 43 73 64 150 64 90 0 144 -29 178 -95 l25 -49 3 -393 3 -393 50 0 50 0 -3 404 -3 403 -35 68 c-40 77 -97 124 -181 149 -62 19 -198 27 -265 17z"/>
<path d="M4117 6060 c-108 -19 -167 -93 -167 -212 0 -113 59 -187 187 -233 165 -60 233 -108 233 -165 0 -73 -43 -114 -119 -113 -99 1 -143 54 -124 147 6 28 10 52 8 54 -1 1 -31 -3 -66 -10 l-64 -13 -3 -44 c-4 -61 3 -85 39 -126 46 -52 132 -76 276 -76 177 -1 254 23 307 94 20 27 21 43 24 308 3 264 4 280 23 289 13 8 25 7 39 0 18 -10 22 -7 35 22 7 18 11 36 7 40 -15 15 -130 38 -192 38 -74 0 -142 -26 -160 -60 l-11 -21 -32 27 c-60 51 -147 70 -240 54z m196 -111 c41 -19 50 -54 55 -208 l4 -144 -43 31 c-84 57 -101 92 -101 199 1 68 12 109 36 125 15 10 21 10 49 -3z"/>
<path d="M5552 6059 c-202 -36 -308 -219 -274 -473 28 -216 147 -316 372 -316 129 0 207 26 275 93 79 78 99 137 99 302 0 101 -4 141 -18 179 -38 104 -100 166 -198 199 -60 21 -187 29 -256 16z m137 -85 c33 -43 42 -90 48 -254 6 -167 -6 -280 -35 -340 -13 -28 -24 -36 -49 -38 -28 -3 -34 1 -52 36 -30 58 -45 196 -38 352 6 149 25 231 60 255 30 21 42 19 66 -11z"/>
<path d="M4948 6051 c-46 -15 -85 -43 -104 -75 -17 -28 -19 -58 -22 -313 l-3 -283 -45 0 -44 0 0 -45 0 -45 45 0 44 0 3 -66 3 -66 75 -28 c41 -15 103 -41 138 -59 l62 -31 0 125 0 125 60 0 60 0 0 45 0 45 -60 0 -60 0 2 287 c3 274 4 288 22 291 10 2 23 -3 28 -12 9 -17 54 -21 76 -8 19 13 -26 73 -71 95 -41 21 -167 31 -209 18z"/>
<path d="M1570 5665 l0 -385 79 0 c43 0 106 -3 140 -6 l61 -7 0 62 0 61 40 -39 c22 -21 57 -47 78 -57 47 -23 152 -30 192 -14 32 13 100 82 100 101 0 6 18 -8 41 -31 55 -57 114 -81 195 -81 105 0 164 41 184 127 5 21 10 177 10 347 l0 307 -140 0 -140 0 0 -304 c0 -281 -1 -306 -19 -327 -17 -21 -21 -22 -50 -9 -62 25 -66 44 -69 358 l-3 282 -140 0 -139 0 0 -294 c0 -172 -4 -306 -10 -321 -8 -22 -15 -26 -42 -23 -37 4 -65 37 -78 94 -5 21 -10 153 -10 292 l0 252 -140 0 -140 0 0 -385z"/>
<path d="M2850 5709 l0 -340 -45 7 -45 6 0 -46 0 -46 45 0 45 0 0 -41 c0 -100 44 -180 123 -222 58 -30 186 -31 236 -2 48 28 71 64 74 114 l2 43 -62 23 -63 22 0 -57 c0 -65 -13 -83 -57 -78 -19 2 -30 11 -37 29 -12 34 -4 63 33 122 30 47 31 47 86 47 l55 0 0 40 0 40 -55 0 -55 0 0 340 0 340 -140 0 -140 0 0 -341z"/>
<path d="M3330 5671 l0 -378 95 -7 c52 -3 115 -9 140 -13 l45 -6 0 59 0 59 25 -37 c36 -53 82 -78 144 -78 94 0 138 72 119 197 -16 104 -15 103 -119 103 l-91 0 8 -32 c4 -18 8 -55 8 -83 1 -45 -1 -50 -22 -53 -18 -3 -26 5 -45 45 -21 45 -22 63 -25 326 l-3 277 -140 0 -139 0 0 -379z"/>
<path d="M3108 4864 c-241 -35 -440 -103 -708 -242 -310 -160 -436 -248 -615 -427 -767 -766 -784 -1991 -38 -2785 260 -277 621 -485 996 -575 l98 -23 96 47 95 46 1 1020 c0 560 4 1043 9 1073 10 62 39 125 76 165 24 25 32 27 101 27 57 0 91 -7 135 -25 l58 -24 95 47 94 47 476 634 c370 493 474 638 466 650 -17 27 -233 149 -353 200 -186 78 -364 126 -560 151 -116 14 -405 11 -522 -6z"/>
<path d="M4980 2959 c-91 -10 -424 -45 -740 -79 -316 -33 -594 -63 -617 -66 l-43 -6 0 -72 0 -72 56 -49 56 -48 -59 -31 -58 -31 -3 -841 c-2 -544 0 -844 6 -848 15 -9 222 46 337 89 112 42 387 177 517 254 159 94 358 255 454 367 47 54 48 57 29 71 -20 14 -30 13 -69 -2 -12 -6 1 22 41 81 196 294 306 617 332 974 5 74 7 179 4 233 l-6 97 -36 -1 c-20 -1 -110 -10 -201 -20z"/>
</g>
<g id="layer109" fill="#8aa01e" stroke="none">
<path d="M3625 2532 l-50 -27 -3 -841 c-2 -544 0 -844 6 -848 15 -9 222 46 337 89 112 42 387 177 517 254 159 94 358 255 454 367 47 54 48 57 29 71 -11 8 -29 11 -40 8 -65 -21 -18 -54 -430 305 -573 500 -748 650 -759 650 -6 0 -33 -13 -61 -28z"/>
</g>
<g id="layer110" fill="#86a832" stroke="none">
<path d="M934 6061 c-150 -24 -228 -81 -277 -203 -20 -50 -21 -72 -25 -445 l-4 -393 156 0 155 0 3 418 c3 371 5 420 20 448 24 43 73 64 150 64 90 0 144 -29 178 -95 l25 -49 3 -393 3 -393 50 0 50 0 -3 404 -3 403 -35 68 c-40 77 -97 124 -181 149 -62 19 -198 27 -265 17z"/>
<path d="M4117 6060 c-108 -19 -167 -93 -167 -212 0 -112 61 -188 187 -233 165 -60 233 -108 233 -165 0 -73 -43 -114 -119 -113 -99 1 -143 54 -124 147 6 28 10 52 8 54 -1 1 -31 -3 -66 -10 l-64 -13 -3 -55 c-2 -45 2 -62 20 -89 55 -81 138 -105 337 -99 148 4 203 20 249 71 36 39 42 83 42 354 0 230 2 253 18 262 9 5 29 7 43 4 22 -4 28 0 37 26 13 36 12 36 -64 56 -120 31 -255 10 -284 -45 l-11 -21 -32 27 c-60 51 -147 70 -240 54z m191 -106 c43 -12 56 -56 60 -213 l4 -144 -43 31 c-84 57 -101 92 -101 199 1 68 12 109 36 125 13 9 15 9 44 2z"/>
<path d="M5559 6060 c-112 -20 -210 -91 -248 -180 -67 -156 -44 -397 49 -503 60 -68 140 -99 267 -105 143 -6 223 18 297 91 80 78 100 137 100 302 0 101 -4 141 -18 179 -38 104 -100 166 -198 199 -58 20 -187 29 -249 17z m130 -86 c34 -43 43 -90 48 -259 8 -249 -18 -367 -84 -373 -28 -3 -34 1 -52 36 -30 58 -45 196 -38 352 6 149 25 231 60 255 30 21 42 19 66 -11z"/>
<path d="M4951 6051 c-40 -11 -77 -37 -105 -75 -20 -26 -21 -43 -24 -312 l-3 -284 -45 0 -44 0 0 -45 0 -45 45 0 44 0 3 -66 3 -66 78 -29 c43 -15 105 -41 138 -58 l59 -29 0 124 0 124 60 0 60 0 0 45 0 45 -60 0 -60 0 2 287 c3 274 4 288 22 291 10 2 23 -3 28 -12 9 -17 54 -21 76 -8 19 13 -26 73 -70 95 -42 21 -157 30 -207 18z"/>
<path d="M1570 5670 c0 -296 3 -381 13 -384 6 -3 69 -7 140 -10 l127 -6 0 60 0 60 40 -39 c22 -21 57 -47 78 -57 47 -23 152 -30 192 -14 31 13 100 82 100 101 0 6 20 -10 45 -34 61 -61 114 -80 209 -75 84 4 117 21 151 79 19 32 20 55 23 367 l3 332 -140 0 -141 0 0 -304 c0 -281 -1 -306 -19 -327 -17 -21 -21 -22 -50 -9 -62 25 -66 44 -69 358 l-3 282 -140 0 -139 0 0 -294 c0 -172 -4 -306 -10 -321 -8 -22 -15 -26 -42 -23 -37 4 -65 37 -78 94 -5 21 -10 153 -10 292 l0 252 -140 0 -140 0 0 -380z"/>
<path d="M2850 5709 l0 -340 -45 7 -45 6 0 -46 0 -46 45 0 45 0 0 -41 c0 -100 44 -180 123 -222 58 -30 186 -31 236 -2 48 28 71 64 74 114 l2 44 -50 18 c-74 26 -75 26 -75 -35 0 -61 -14 -79 -57 -74 -19 2 -30 11 -37 29 -12 34 -4 63 33 122 30 47 31 47 86 47 l55 0 0 40 0 40 -55 0 -55 0 0 340 0 340 -140 0 -140 0 0 -341z"/>
<path d="M3330 5672 l0 -379 93 -6 c50 -4 113 -9 140 -13 l47 -7 0 58 0 58 29 -40 c38 -53 90 -77 153 -71 87 9 124 77 106 195 -16 104 -15 103 -119 103 l-91 0 8 -32 c4 -18 8 -55 8 -83 1 -45 -1 -50 -22 -53 -18 -3 -26 5 -45 45 -21 45 -22 63 -25 326 l-3 277 -140 0 -139 0 0 -378z"/>
<path d="M5524 5087 c-14 -23 -46 -78 -72 -121 l-47 -80 -110 -33 -110 -32 -20 27 c-45 61 -67 75 -228 142 -167 71 -169 71 -205 57 -21 -8 -37 -21 -37 -28 0 -7 67 -52 148 -100 82 -48 155 -93 162 -100 19 -20 144 -353 134 -357 -4 -2 -55 6 -112 18 -79 16 -111 18 -131 10 -15 -5 -26 -15 -24 -22 3 -7 81 -43 175 -81 l171 -70 51 37 c35 26 51 45 51 59 0 12 -14 69 -30 127 -17 58 -30 110 -30 117 0 6 50 42 110 79 61 37 114 72 119 78 19 24 113 276 108 289 -3 8 -15 17 -27 20 -17 4 -26 -3 -46 -36z"/>
<path d="M3108 4864 c-127 -19 -299 -63 -423 -109 -101 -37 -415 -195 -535 -268 -316 -193 -587 -493 -750 -831 -515 -1067 -1 -2337 1111 -2750 117 -43 279 -86 323 -85 17 0 69 19 115 43 l83 42 1 1019 c0 561 4 1043 9 1073 10 62 39 125 76 165 24 25 32 27 101 27 57 0 91 -7 135 -25 l58 -24 95 47 94 47 476 634 c370 493 474 638 466 650 -17 27 -233 149 -353 200 -186 78 -364 126 -560 151 -116 14 -405 11 -522 -6z"/>
<path d="M5306 4325 c-16 -8 -35 -23 -42 -33 -16 -20 -18 -86 -4 -113 12 -22 61 -49 89 -49 87 0 132 105 74 170 -34 37 -78 46 -117 25z"/>
<path d="M3625 2532 l-50 -27 -3 -841 c-2 -544 0 -844 6 -848 15 -9 222 46 337 89 108 40 349 158 372 181 14 13 28 18 46 15 5 -1 5 4 1 10 -5 9 -2 10 10 6 9 -4 15 -3 12 2 -3 5 25 31 63 60 95 70 248 210 296 269 31 39 60 60 128 93 79 39 86 45 70 57 -10 7 -27 10 -38 7 -65 -21 -18 -54 -430 305 -573 500 -748 650 -759 650 -6 0 -33 -13 -61 -28z"/>
<path d="M4874 1518 c-4 -7 -3 -8 4 -4 12 7 16 16 8 16 -3 0 -8 -5 -12 -12z"/>
<path d="M4769 1413 c-13 -16 -12 -17 4 -4 16 13 21 21 13 21 -2 0 -10 -8 -17 -17z"/>
</g>
<g id="layer111" fill="#c4e12e" stroke="none">
<path d="M5478 5001 l-68 -118 -112 -32 -112 -33 -18 22 c-10 12 -25 32 -35 46 -12 16 -77 49 -193 98 -162 69 -177 73 -205 62 -16 -7 -31 -19 -32 -27 -2 -9 56 -48 155 -104 l157 -91 69 -182 c38 -100 67 -184 64 -187 -2 -2 -49 5 -104 17 -96 20 -174 20 -174 -1 0 -8 325 -144 344 -144 17 0 106 65 106 77 0 6 -16 67 -35 136 -19 69 -35 126 -35 126 0 1 54 34 119 74 l119 73 58 145 c47 118 55 145 43 153 -31 20 -46 6 -111 -110z"/>
<path d="M5279 4301 c-39 -40 -40 -89 -1 -132 76 -85 210 8 158 109 -32 61 -108 72 -157 23z"/>
<path d="M3580 1661 c0 -794 1 -841 18 -841 9 0 67 13 129 30 252 66 514 193 718 348 81 63 296 273 293 287 -3 11 -66 67 -518 460 -283 246 -495 430 -572 498 l-68 59 0 -841z"/>
</g>
<g id="layer112" fill="#cdcfcf" stroke="none">
<path d="M863 6045 c-104 -32 -166 -89 -206 -187 -20 -50 -21 -73 -25 -445 l-4 -393 154 0 153 0 0 403 c0 394 0 403 22 450 27 59 65 77 160 77 91 0 139 -26 173 -95 l25 -50 3 -392 3 -393 50 0 50 0 -3 403 c-3 398 -3 403 -27 454 -34 77 -103 137 -186 162 -80 25 -272 28 -342 6z"/>
<path d="M4071 6047 c-46 -15 -98 -68 -110 -114 -15 -53 -14 -137 3 -176 28 -69 92 -114 228 -163 137 -50 185 -94 175 -165 -6 -48 -21 -68 -65 -86 -43 -18 -115 -8 -149 21 -29 25 -41 90 -24 137 6 18 10 34 8 36 -2 2 -33 -3 -68 -10 l-64 -13 -3 -51 c-8 -140 103 -199 357 -191 149 4 202 20 251 72 l25 28 5 282 c6 315 7 323 66 312 29 -6 33 -4 42 24 13 35 12 35 -64 55 -119 31 -244 12 -279 -41 l-16 -25 -31 26 c-17 14 -46 32 -65 40 -41 17 -171 18 -222 2z m258 -106 c31 -31 42 -91 39 -221 l-3 -120 -49 38 c-73 54 -91 91 -90 182 1 91 22 140 59 140 14 0 34 -9 44 -19z"/>
<path d="M4951 6050 c-39 -9 -77 -35 -105 -74 -20 -26 -21 -43 -24 -312 l-3 -284 -45 0 -44 0 0 -45 0 -45 45 0 45 0 0 -66 c0 -56 3 -67 19 -71 16 -4 207 -81 249 -99 9 -5 12 22 12 115 l0 121 60 0 60 0 0 45 0 45 -60 0 -60 0 2 287 c3 275 4 288 22 291 11 3 25 -4 32 -13 10 -13 21 -16 49 -11 35 7 35 7 20 36 -37 71 -159 107 -274 80z"/>
<path d="M5476 6035 c-152 -62 -228 -233 -198 -446 22 -152 77 -235 191 -287 83 -38 234 -43 331 -12 126 40 196 128 221 274 15 89 6 216 -20 287 -56 150 -159 209 -360 209 -89 0 -116 -4 -165 -25z m220 -72 c30 -46 44 -137 44 -294 0 -152 -13 -250 -39 -294 -14 -24 -24 -30 -51 -30 -28 0 -36 6 -51 36 -11 19 -24 73 -30 119 -15 108 -6 348 14 413 29 91 72 110 113 50z"/>
<path d="M1570 5670 l0 -379 33 -5 c17 -3 80 -7 140 -10 l107 -6 0 62 0 62 43 -41 c23 -23 62 -51 87 -62 53 -24 136 -27 183 -7 33 13 97 78 97 97 0 6 20 -10 45 -34 60 -61 114 -80 207 -76 85 5 125 27 154 86 17 34 19 69 22 366 l3 327 -140 0 -141 0 0 -304 c0 -279 -1 -306 -18 -326 -16 -20 -23 -21 -48 -13 -16 5 -38 25 -49 44 -18 31 -20 57 -25 314 l-5 280 -137 3 -138 3 0 -295 c0 -162 -4 -306 -9 -319 -19 -49 -70 -38 -105 23 -20 33 -21 54 -24 313 l-3 277 -140 0 -139 0 0 -380z"/>
<path d="M2850 5710 l0 -340 -45 0 -45 0 0 -40 0 -40 45 0 45 0 0 -41 c0 -165 124 -269 288 -241 97 16 134 48 147 129 l6 41 -56 21 c-31 12 -60 21 -65 21 -6 0 -10 -24 -10 -54 0 -61 -14 -79 -57 -74 -19 2 -30 11 -37 29 -12 34 -4 63 33 122 30 47 31 47 86 47 l55 0 0 40 0 40 -55 0 -55 0 0 340 0 340 -140 0 -140 0 0 -340z"/>
<path d="M3330 5672 l0 -379 103 -6 c56 -4 119 -10 140 -13 l37 -7 0 59 0 58 30 -41 c66 -89 192 -100 240 -21 23 38 27 122 9 192 l-11 43 -91 6 c-50 3 -93 4 -95 2 -2 -2 2 -29 10 -61 20 -77 14 -106 -21 -102 -21 2 -30 13 -48 58 -21 52 -22 70 -23 323 l0 267 -140 0 -140 0 0 -378z"/>
<path d="M3130 4865 c-254 -36 -438 -95 -690 -223 -233 -118 -316 -167 -447 -266 -498 -374 -793 -966 -793 -1591 0 -747 418 -1435 1080 -1774 74 -38 178 -85 230 -104 95 -36 283 -87 317 -87 10 0 60 19 111 42 l92 42 1 960 c2 1208 0 1139 34 1214 15 33 40 73 56 88 27 25 36 28 98 27 48 -1 87 -9 131 -27 l63 -25 98 52 99 52 470 628 c258 345 470 632 470 637 0 16 -113 85 -261 159 -214 106 -440 174 -674 201 -121 13 -369 11 -485 -5z"/>
</g>
<g id="layer113" fill="#dce3e3" stroke="none">
<path d="M871 6045 c-96 -27 -163 -83 -203 -170 -23 -49 -23 -57 -26 -452 l-3 -403 145 0 145 0 3 408 c3 384 4 409 23 447 29 58 74 80 160 79 104 -1 159 -37 190 -123 12 -36 15 -108 15 -427 l0 -384 50 0 50 0 0 364 c0 201 -4 387 -10 416 -22 114 -84 191 -189 231 -74 29 -269 36 -350 14z"/>
<path d="M4075 6044 c-74 -27 -111 -77 -121 -166 -15 -132 47 -211 214 -272 97 -35 131 -52 170 -89 25 -24 32 -39 32 -69 0 -99 -84 -146 -185 -104 -52 22 -69 55 -62 127 l5 61 -51 -7 c-66 -9 -80 -26 -73 -87 6 -57 27 -91 71 -118 100 -62 374 -66 488 -9 74 39 77 49 77 349 0 229 2 269 16 289 13 18 23 22 46 17 24 -5 31 -1 40 19 16 34 5 42 -78 60 -124 26 -198 14 -249 -40 l-31 -32 -36 33 c-20 18 -53 37 -75 43 -53 15 -150 12 -198 -5z m269 -117 c19 -25 21 -44 24 -183 l3 -154 -53 39 c-79 59 -93 89 -93 191 0 106 18 143 67 138 20 -2 38 -13 52 -31z"/>
<path d="M5527 6049 c-177 -42 -256 -176 -244 -415 6 -143 25 -193 96 -265 75 -74 136 -94 281 -93 170 1 262 49 319 167 55 112 62 265 19 406 -28 92 -99 161 -193 190 -72 22 -205 27 -278 10z m152 -59 c50 -26 81 -243 62 -437 -13 -133 -24 -173 -56 -203 -21 -20 -28 -22 -49 -12 -60 27 -80 129 -73 369 5 182 14 236 49 273 21 22 40 25 67 10z"/>
<path d="M1577 6043 c-4 -3 -7 -174 -7 -378 l0 -372 113 -7 c61 -4 122 -10 135 -13 21 -5 22 -2 22 56 0 34 3 61 6 61 3 0 29 -20 56 -45 111 -100 266 -98 334 4 l27 41 42 -39 c69 -64 99 -76 192 -76 88 0 114 11 157 69 20 26 21 42 24 367 l3 339 -136 0 -135 0 0 -306 c0 -191 -4 -313 -10 -325 -23 -41 -90 -13 -118 50 -14 30 -17 84 -20 309 l-4 272 -134 0 -134 0 0 -308 c0 -347 -1 -353 -61 -336 -27 7 -39 19 -59 59 -24 49 -25 57 -28 318 l-4 267 -127 0 c-70 0 -131 -3 -134 -7z"/>
<path d="M2860 5710 l0 -340 -50 0 -50 0 0 -40 0 -40 49 0 49 0 4 -74 c3 -61 8 -80 32 -114 42 -61 111 -92 200 -92 122 1 186 47 186 134 0 33 -3 36 -55 55 -31 12 -58 21 -61 21 -3 0 -2 -16 2 -35 13 -73 -41 -130 -86 -90 -30 27 -26 80 12 142 l32 53 58 0 58 0 0 40 0 40 -55 0 -55 0 0 340 0 340 -135 0 -135 0 0 -340z"/>
<path d="M3330 5671 l0 -378 118 -6 c64 -3 125 -8 135 -12 15 -6 17 0 17 54 0 34 4 61 10 61 6 0 10 -4 10 -10 0 -18 65 -83 97 -96 42 -18 77 -18 118 2 60 28 77 99 54 217 l-12 57 -93 0 -93 0 16 -54 c36 -127 -37 -160 -83 -37 -15 38 -18 91 -22 314 l-4 267 -134 0 -134 0 0 -379z"/>
<path d="M4913 6031 c-77 -35 -77 -37 -83 -366 l-5 -290 -47 -3 -48 -3 0 -40 0 -39 50 0 49 0 3 -66 3 -66 75 -28 c41 -15 98 -39 127 -53 29 -15 55 -27 58 -27 3 0 5 54 5 120 l0 120 60 0 60 0 0 40 0 40 -60 0 -60 0 0 289 c0 253 2 290 16 302 14 11 19 10 33 -7 13 -16 25 -20 49 -16 18 2 32 6 32 9 0 21 -42 67 -75 83 -56 27 -183 27 -242 1z"/>
<path d="M3003 4780 c-372 -39 -745 -195 -1054 -441 -103 -82 -263 -246 -342 -351 -461 -615 -533 -1413 -189 -2103 97 -196 225 -367 398 -535 239 -231 524 -396 834 -485 179 -51 172 -51 280 -2 l95 43 5 1060 5 1059 33 67 c18 37 45 76 59 88 37 29 115 26 211 -6 l77 -26 89 44 89 43 473 629 c261 346 472 631 470 633 -2 3 -36 -12 -75 -31 -39 -20 -76 -36 -82 -36 -6 0 -50 24 -98 54 -229 141 -483 237 -751 281 -113 19 -411 27 -527 15z"/>
</g>
<g id="layer114" fill="#f7f7f7" stroke="none">
<path d="M885 6047 c-107 -28 -176 -83 -217 -172 -23 -49 -23 -57 -26 -452 l-3 -403 145 0 145 0 3 408 c3 384 4 409 23 446 28 56 61 77 132 83 103 9 175 -28 214 -112 17 -37 19 -72 19 -432 l0 -393 50 0 50 0 0 353 c0 197 -5 380 -11 417 -19 121 -81 200 -189 241 -69 27 -259 35 -335 16z"/>
<path d="M4100 6051 c-82 -25 -123 -68 -142 -150 -9 -39 -9 -63 1 -103 21 -94 76 -142 221 -193 83 -30 165 -78 180 -106 13 -23 13 -95 0 -120 -25 -46 -121 -64 -185 -33 -44 20 -59 60 -52 130 l6 56 -46 -7 c-66 -10 -72 -13 -79 -52 -11 -59 21 -120 81 -154 115 -64 385 -64 490 1 61 38 65 58 65 352 0 295 2 304 59 296 28 -4 34 -1 42 19 5 14 7 28 4 33 -10 16 -111 34 -185 34 -83 -1 -129 -18 -156 -59 l-16 -25 -39 34 c-21 18 -56 38 -78 44 -43 13 -132 14 -171 3z m241 -117 c23 -24 24 -32 27 -185 l3 -160 -60 46 c-75 57 -95 103 -89 203 4 83 25 122 66 122 18 0 38 -10 53 -26z"/>
<path d="M5519 6047 c-155 -44 -227 -149 -237 -346 -10 -216 55 -344 204 -401 77 -30 242 -33 319 -5 104 36 164 99 197 208 17 58 20 87 16 190 -3 104 -8 130 -29 177 -37 79 -79 123 -151 155 -54 24 -78 29 -168 32 -65 2 -122 -2 -151 -10z m173 -64 c64 -71 76 -470 19 -599 -35 -78 -100 -66 -131 24 -18 53 -26 379 -11 463 16 87 42 129 79 129 16 0 36 -8 44 -17z"/>
<path d="M4910 6028 c-78 -41 -80 -51 -80 -375 l0 -283 -45 0 c-45 0 -45 0 -45 -34 0 -34 1 -35 43 -38 l42 -3 5 -68 5 -69 59 -20 c33 -11 89 -33 124 -49 36 -16 66 -29 68 -29 2 0 5 53 6 118 l3 117 63 3 62 3 0 34 0 34 -62 3 -63 3 -3 250 c-3 291 0 331 30 341 14 4 25 1 33 -10 13 -17 75 -23 75 -6 0 22 -62 77 -98 88 -67 20 -171 15 -222 -10z"/>
<path d="M1580 5666 l0 -373 115 -7 c64 -4 122 -9 130 -12 12 -5 15 6 15 60 0 36 2 66 5 66 3 0 19 -15 35 -33 37 -43 113 -83 171 -92 81 -12 142 15 194 88 l20 28 47 -45 c90 -86 239 -101 317 -32 49 43 51 63 51 406 l0 320 -135 0 -135 0 0 -308 c0 -226 -3 -311 -12 -320 -22 -22 -65 -14 -91 18 -39 46 -47 110 -47 370 l0 240 -135 0 -135 0 0 -301 c0 -188 -4 -308 -10 -320 -23 -43 -83 -17 -113 49 -20 43 -22 67 -25 310 l-4 262 -129 0 -129 0 0 -374z"/>
<path d="M2860 5705 l0 -335 -50 0 -50 0 0 -40 0 -40 50 0 50 0 0 -57 c1 -100 58 -184 146 -213 51 -17 172 -8 212 15 36 22 62 69 62 113 0 26 -5 31 -56 51 -31 11 -57 21 -57 21 -1 0 -2 -25 -2 -56 0 -58 -17 -84 -56 -84 -55 0 -64 78 -19 158 l30 52 55 0 55 0 0 40 0 40 -50 0 -50 0 0 335 0 335 -135 0 -135 0 0 -335z"/>
<path d="M3332 5668 l3 -373 117 -6 c65 -4 125 -9 133 -13 12 -4 15 5 15 54 0 33 4 60 8 60 4 0 16 -13 25 -30 33 -55 83 -84 143 -84 47 0 58 4 85 30 26 26 31 41 35 90 3 34 -1 81 -9 109 l-13 50 -92 3 -91 3 14 -48 c19 -61 19 -97 0 -113 -24 -20 -52 -2 -76 53 -23 50 -24 64 -27 320 l-4 267 -134 0 -134 0 2 -372z"/>
<path d="M2922 4765 c-221 -36 -395 -90 -577 -179 -614 -301 -1013 -841 -1121 -1517 -23 -143 -23 -419 -1 -565 68 -441 257 -816 566 -1125 268 -267 569 -439 930 -530 90 -23 116 -27 123 -17 4 7 8 474 8 1038 0 700 4 1038 11 1065 15 55 50 113 96 157 39 37 129 88 156 88 9 0 19 5 23 11 12 20 162 6 222 -21 l53 -23 24 24 c20 22 911 1207 929 1236 10 17 -118 100 -269 174 -145 70 -317 129 -485 165 -112 23 -151 27 -365 30 -169 2 -265 -1 -323 -11z"/>
</g>


</svg>